<?xml version="1.0" encoding="UTF-8" standalone="no"?>
<!-- Created with Inkscape (http://www.inkscape.org/) -->

<svg
   width="200mm"
   height="180mm"
   viewBox="0 0 200 180"
   version="1.1"
   id="svg1"
   sodipodi:docname="macropad-me.svg"
   inkscape:version="1.4 (86a8ad7, 2024-10-11)"
   xml:space="preserve"
   xmlns:inkscape="http://www.inkscape.org/namespaces/inkscape"
   xmlns:sodipodi="http://sodipodi.sourceforge.net/DTD/sodipodi-0.dtd"
   xmlns="http://www.w3.org/2000/svg"
   xmlns:svg="http://www.w3.org/2000/svg"><sodipodi:namedview
     id="namedview1"
     pagecolor="#ffffff"
     bordercolor="#000000"
     borderopacity="0.25"
     inkscape:showpageshadow="2"
     inkscape:pageopacity="0.0"
     inkscape:pagecheckerboard="0"
     inkscape:deskcolor="#d1d1d1"
     inkscape:document-units="mm"
     inkscape:zoom="1.0264514"
     inkscape:cx="338.0579"
     inkscape:cy="366.79769"
     inkscape:window-width="1920"
     inkscape:window-height="1057"
     inkscape:window-x="-8"
     inkscape:window-y="-8"
     inkscape:window-maximized="1"
     inkscape:current-layer="layer1"
     showguides="true" /><defs
     id="defs1"><inkscape:path-effect
       effect="tiling"
       id="path-effect10"
       is_visible="true"
       lpeversion="1.3.1"
       unit="cm"
       seed="1;1"
       lpesatellites=""
       num_rows="2"
       num_cols="2"
       gapx="7"
       gapy="5.5"
       offset="0"
       offset_type="false"
       scale="0"
       rotate="0"
       mirrorrowsx="false"
       mirrorrowsy="false"
       mirrorcolsx="false"
       mirrorcolsy="false"
       mirrortrans="false"
       shrink_interp="false"
       split_items="false"
       link_styles="false"
       interpolate_scalex="false"
       interpolate_scaley="true"
       interpolate_rotatex="false"
       interpolate_rotatey="true"
       random_scale="false"
       random_rotate="false"
       random_gap_y="false"
       random_gap_x="false"
       transformorigin="" /><inkscape:path-effect
       effect="tiling"
       id="path-effect11"
       is_visible="true"
       lpeversion="1.3.1"
       unit="mm"
       seed="1;1"
       lpesatellites=""
       num_rows="2"
       num_cols="1"
       gapx="0"
       gapy="35"
       offset="0"
       offset_type="false"
       scale="0"
       rotate="0"
       mirrorrowsx="false"
       mirrorrowsy="false"
       mirrorcolsx="false"
       mirrorcolsy="false"
       mirrortrans="false"
       shrink_interp="false"
       split_items="false"
       link_styles="false"
       interpolate_scalex="false"
       interpolate_scaley="true"
       interpolate_rotatex="false"
       interpolate_rotatey="true"
       random_scale="false"
       random_rotate="false"
       random_gap_y="false"
       random_gap_x="false"
       transformorigin="" /><inkscape:path-effect
       effect="tiling"
       id="path-effect9"
       is_visible="true"
       lpeversion="1.3.1"
       unit="mm"
       seed="1;1"
       lpesatellites=""
       num_rows="3"
       num_cols="2"
       gapx="34"
       gapy="38"
       offset="0"
       offset_type="false"
       scale="0"
       rotate="0"
       mirrorrowsx="false"
       mirrorrowsy="false"
       mirrorcolsx="false"
       mirrorcolsy="false"
       mirrortrans="false"
       shrink_interp="false"
       split_items="false"
       link_styles="false"
       interpolate_scalex="false"
       interpolate_scaley="true"
       interpolate_rotatex="false"
       interpolate_rotatey="true"
       random_scale="false"
       random_rotate="false"
       random_gap_y="false"
       random_gap_x="false"
       transformorigin="" /><inkscape:path-effect
       effect="tiling"
       id="path-effect8"
       is_visible="true"
       lpeversion="1.3.1"
       unit="mm"
       seed="1;1"
       lpesatellites=""
       num_rows="2"
       num_cols="2"
       gapx="54"
       gapy="35"
       offset="0"
       offset_type="false"
       scale="0"
       rotate="0"
       mirrorrowsx="false"
       mirrorrowsy="false"
       mirrorcolsx="false"
       mirrorcolsy="false"
       mirrortrans="false"
       shrink_interp="false"
       split_items="false"
       link_styles="false"
       interpolate_scalex="false"
       interpolate_scaley="true"
       interpolate_rotatex="false"
       interpolate_rotatey="true"
       random_scale="false"
       random_rotate="false"
       random_gap_y="false"
       random_gap_x="false"
       transformorigin="" /><inkscape:path-effect
       effect="tiling"
       id="path-effect7"
       is_visible="true"
       lpeversion="1.3.1"
       unit="mm"
       seed="1;1"
       lpesatellites=""
       num_rows="3"
       num_cols="2"
       gapx="50"
       gapy="38"
       offset="0"
       offset_type="false"
       scale="0"
       rotate="0"
       mirrorrowsx="false"
       mirrorrowsy="false"
       mirrorcolsx="false"
       mirrorcolsy="false"
       mirrortrans="false"
       shrink_interp="false"
       split_items="false"
       link_styles="false"
       interpolate_scalex="false"
       interpolate_scaley="true"
       interpolate_rotatex="false"
       interpolate_rotatey="true"
       random_scale="false"
       random_rotate="false"
       random_gap_y="false"
       random_gap_x="false"
       transformorigin="" /><inkscape:path-effect
       effect="fillet_chamfer"
       id="path-effect6"
       is_visible="true"
       lpeversion="1"
       nodesatellites_param="F,0,0,1,0,1.8520833,0,1 @ F,0,0,1,0,1.8520833,0,1 @ F,0,0,1,0,1.8520833,0,1 @ F,0,0,1,0,1.8520833,0,1 @ F,0,0,1,0,1.8520833,0,1 @ F,0,0,1,0,1.8520833,0,1 @ F,0,0,1,0,1.8520833,0,1 @ F,0,0,1,0,1.8520833,0,1 @ F,0,0,1,0,1.8520833,0,1 @ F,0,0,1,0,1.8520833,0,1 @ F,0,0,1,0,1.8520833,0,1 @ F,0,0,1,0,1.8520833,0,1"
       radius="7"
       unit="px"
       method="auto"
       mode="F"
       chamfer_steps="1"
       flexible="false"
       use_knot_distance="true"
       apply_no_radius="true"
       apply_with_radius="true"
       only_selected="false"
       hide_knots="false" /><inkscape:path-effect
       effect="tiling"
       id="path-effect5"
       is_visible="true"
       lpeversion="1.3.1"
       unit="cm"
       seed="1;1"
       lpesatellites=""
       num_rows="3"
       num_cols="2"
       gapx="5.3"
       gapy="3.5"
       offset="0"
       offset_type="false"
       scale="0"
       rotate="0"
       mirrorrowsx="false"
       mirrorrowsy="false"
       mirrorcolsx="false"
       mirrorcolsy="false"
       mirrortrans="false"
       shrink_interp="false"
       split_items="false"
       link_styles="false"
       interpolate_scalex="false"
       interpolate_scaley="true"
       interpolate_rotatex="false"
       interpolate_rotatey="true"
       random_scale="false"
       random_rotate="false"
       random_gap_y="false"
       random_gap_x="false"
       transformorigin="" /><inkscape:path-effect
       effect="tiling"
       id="path-effect4"
       is_visible="true"
       lpeversion="1.3.1"
       unit="cm"
       seed="1;1"
       lpesatellites=""
       num_rows="3"
       num_cols="2"
       gapx="0.13229167"
       gapy="0.097895833"
       offset="0"
       offset_type="false"
       scale="0"
       rotate="0"
       mirrorrowsx="false"
       mirrorrowsy="false"
       mirrorcolsx="false"
       mirrorcolsy="false"
       mirrortrans="false"
       shrink_interp="false"
       split_items="false"
       link_styles="false"
       interpolate_scalex="false"
       interpolate_scaley="true"
       interpolate_rotatex="false"
       interpolate_rotatey="true"
       random_scale="false"
       random_rotate="false"
       random_gap_y="false"
       random_gap_x="false"
       transformorigin="" /><inkscape:path-effect
       effect="tiling"
       id="path-effect3"
       is_visible="true"
       lpeversion="1.3.1"
       unit="mm"
       seed="1;1"
       lpesatellites=""
       num_rows="3"
       num_cols="2"
       gapx="8"
       gapy="8"
       offset="0"
       offset_type="false"
       scale="0"
       rotate="0"
       mirrorrowsx="false"
       mirrorrowsy="false"
       mirrorcolsx="false"
       mirrorcolsy="false"
       mirrortrans="false"
       shrink_interp="false"
       split_items="false"
       link_styles="false"
       interpolate_scalex="false"
       interpolate_scaley="true"
       interpolate_rotatex="false"
       interpolate_rotatey="true"
       random_scale="false"
       random_rotate="false"
       random_gap_y="false"
       random_gap_x="false"
       transformorigin="" /><inkscape:path-effect
       effect="tiling"
       id="path-effect2"
       is_visible="true"
       lpeversion="1.3.1"
       unit="mm"
       seed="1;1"
       lpesatellites=""
       num_rows="3"
       num_cols="2"
       gapx="49"
       gapy="42"
       offset="0"
       offset_type="false"
       scale="0"
       rotate="0"
       mirrorrowsx="false"
       mirrorrowsy="false"
       mirrorcolsx="false"
       mirrorcolsy="false"
       mirrortrans="false"
       shrink_interp="false"
       split_items="false"
       link_styles="false"
       interpolate_scalex="false"
       interpolate_scaley="true"
       interpolate_rotatex="false"
       interpolate_rotatey="true"
       random_scale="false"
       random_rotate="false"
       random_gap_y="false"
       random_gap_x="false"
       transformorigin="" /><inkscape:path-effect
       effect="tiling"
       id="path-effect1"
       is_visible="true"
       lpeversion="1.3.1"
       unit="cm"
       seed="1;1"
       lpesatellites=""
       num_rows="3"
       num_cols="4"
       gapx="6"
       gapy="4"
       offset="0"
       offset_type="false"
       scale="0"
       rotate="0"
       mirrorrowsx="false"
       mirrorrowsy="false"
       mirrorcolsx="false"
       mirrorcolsy="false"
       mirrortrans="false"
       shrink_interp="false"
       split_items="false"
       link_styles="false"
       interpolate_scalex="false"
       interpolate_scaley="true"
       interpolate_rotatex="false"
       interpolate_rotatey="true"
       random_scale="false"
       random_rotate="false"
       random_gap_y="false"
       random_gap_x="false"
       transformorigin="" /><linearGradient
       id="swatch1"
       inkscape:swatch="solid"><stop
         style="stop-color:#ff0000;stop-opacity:1;"
         offset="0"
         id="stop1" /></linearGradient></defs><g
     inkscape:label="Layer 1"
     inkscape:groupmode="layer"
     id="layer1"
     style="display:inline"><path
       id="rect1"
       style="fill:none;stroke:#ff0000;stroke-width:0.001;stroke-linecap:square"
       transform="translate(1.5831646,-2.8923223)"
       d="m 11.421053,103.39182 h 49 c 1.662,0 3,1.338 3,3 v 1 c 0,1.662 -1.338,3 -3,3 h -49 c -1.6620001,0 -3.0000001,-1.338 -3.0000001,-3 v -1 c 0,-1.662 1.338,-3 3.0000001,-3 z m 124.999997,0 h 49 c 1.662,0 3,1.338 3,3 v 1 c 0,1.662 -1.338,3 -3,3 h -49 c -1.662,0 -3,-1.338 -3,-3 v -1 c 0,-1.662 1.338,-3 3,-3 z m -124.999997,62 h 49 c 1.662,0 3,1.338 3,3 v 1 c 0,1.662 -1.338,3 -3,3 h -49 c -1.6620001,0 -3.0000001,-1.338 -3.0000001,-3 v -1 c 0,-1.662 1.338,-3 3.0000001,-3 z m 124.999997,0 h 49 c 1.662,0 3,1.338 3,3 v 1 c 0,1.662 -1.338,3 -3,3 h -49 c -1.662,0 -3,-1.338 -3,-3 v -1 c 0,-1.662 1.338,-3 3,-3 z M 3.6813824,96.891441 c 0,0.828159 -0.6713556,1.499515 -1.4995147,1.499515 -0.8281591,0 -1.49951471,-0.671356 -1.49951471,-1.499515 0,-0.828159 0.67135561,-1.499515 1.49951471,-1.499515 0.8281591,0 1.4995147,0.671356 1.4995147,1.499515 z m 52.9990296,0 c 0,0.828159 -0.671356,1.499515 -1.499515,1.499515 -0.828159,0 -1.499515,-0.671356 -1.499515,-1.499515 0,-0.828159 0.671356,-1.499515 1.499515,-1.499515 0.828159,0 1.499515,0.671356 1.499515,1.499515 z M 3.6813824,137.89047 c 0,0.82816 -0.6713556,1.49952 -1.4995147,1.49952 -0.8281591,0 -1.49951471,-0.67136 -1.49951471,-1.49952 0,-0.82816 0.67135561,-1.49951 1.49951471,-1.49951 0.8281591,0 1.4995147,0.67135 1.4995147,1.49951 z m 52.9990296,0 c 0,0.82816 -0.671356,1.49952 -1.499515,1.49952 -0.828159,0 -1.499515,-0.67136 -1.499515,-1.49952 0,-0.82816 0.671356,-1.49951 1.499515,-1.49951 0.828159,0 1.499515,0.67135 1.499515,1.49951 z M 3.6813824,178.8895 c 0,0.82816 -0.6713556,1.49951 -1.4995147,1.49951 -0.8281591,0 -1.49951471,-0.67135 -1.49951471,-1.49951 0,-0.82816 0.67135561,-1.49952 1.49951471,-1.49952 0.8281591,0 1.4995147,0.67136 1.4995147,1.49952 z m 52.9990296,0 c 0,0.82816 -0.671356,1.49951 -1.499515,1.49951 -0.828159,0 -1.499515,-0.67135 -1.499515,-1.49951 0,-0.82816 0.671356,-1.49952 1.499515,-1.49952 0.828159,0 1.499515,0.67136 1.499515,1.49952 z m 22.895017,-59.99669 c 0,0.82816 -0.671356,1.49951 -1.499515,1.49951 -0.828159,0 -1.499515,-0.67135 -1.499515,-1.49951 0,-0.82816 0.671356,-1.49952 1.499515,-1.49952 0.828159,0 1.499515,0.67136 1.499515,1.49952 z m 56.999031,0 c 0,0.82816 -0.67135,1.49951 -1.49951,1.49951 -0.82816,0 -1.49951,-0.67135 -1.49951,-1.49951 0,-0.82816 0.67135,-1.49952 1.49951,-1.49952 0.82816,0 1.49951,0.67136 1.49951,1.49952 z m -56.999031,37.99903 c 0,0.82815 -0.671356,1.49951 -1.499515,1.49951 -0.828159,0 -1.499515,-0.67136 -1.499515,-1.49951 0,-0.82816 0.671356,-1.49952 1.499515,-1.49952 0.828159,0 1.499515,0.67136 1.499515,1.49952 z m 56.999031,0 c 0,0.82815 -0.67135,1.49951 -1.49951,1.49951 -0.82816,0 -1.49951,-0.67136 -1.49951,-1.49951 0,-0.82816 0.67135,-1.49952 1.49951,-1.49952 0.82816,0 1.49951,0.67136 1.49951,1.49952 z m 22.73431,-59.996193 c 0,0.828159 -0.67135,1.499514 -1.49951,1.499514 -0.82816,0 -1.49952,-0.671355 -1.49952,-1.499514 0,-0.828159 0.67136,-1.499515 1.49952,-1.499515 0.82816,0 1.49951,0.671356 1.49951,1.499515 z m 36.99903,0 c 0,0.828159 -0.67135,1.499514 -1.49951,1.499514 -0.82816,0 -1.49952,-0.671355 -1.49952,-1.499514 0,-0.828159 0.67136,-1.499515 1.49952,-1.499515 0.82816,0 1.49951,0.671356 1.49951,1.499515 z m -36.99903,40.999033 c 0,0.82816 -0.67135,1.49951 -1.49951,1.49951 -0.82816,0 -1.49952,-0.67135 -1.49952,-1.49951 0,-0.82816 0.67136,-1.49952 1.49952,-1.49952 0.82816,0 1.49951,0.67136 1.49951,1.49952 z m 36.99903,0 c 0,0.82816 -0.67135,1.49951 -1.49951,1.49951 -0.82816,0 -1.49952,-0.67135 -1.49952,-1.49951 0,-0.82816 0.67136,-1.49952 1.49952,-1.49952 0.82816,0 1.49951,0.67136 1.49951,1.49952 z m -36.99903,40.99903 c 0,0.82815 -0.67135,1.49951 -1.49951,1.49951 -0.82816,0 -1.49952,-0.67136 -1.49952,-1.49951 0,-0.82816 0.67136,-1.49952 1.49952,-1.49952 0.82816,0 1.49951,0.67136 1.49951,1.49952 z m 36.99903,0 c 0,0.82815 -0.67135,1.49951 -1.49951,1.49951 -0.82816,0 -1.49952,-0.67136 -1.49952,-1.49951 0,-0.82816 0.67136,-1.49952 1.49952,-1.49952 0.82816,0 1.49951,0.67136 1.49951,1.49952 z M 1.4215369,92.897028 H 195.41213 c 1.662,0 3,1.338 3,3 v 83.990582 c 0,1.662 -1.338,3 -3,3 H 1.4215369 c -1.6619977,0 -2.9999959,-1.338 -2.9999959,-3 V 95.897028 c 0,-1.662 1.3379982,-3 2.9999959,-3 z M 3.6813824,6.8914413 c 0,0.828159 -0.6713556,1.499515 -1.4995147,1.499515 -0.8281591,0 -1.49951471,-0.671356 -1.49951471,-1.499515 0,-0.828159 0.67135561,-1.499515 1.49951471,-1.499515 0.8281591,0 1.4995147,0.671356 1.4995147,1.499515 z m 52.9990296,0 c 0,0.828159 -0.671356,1.499515 -1.499515,1.499515 -0.828159,0 -1.499515,-0.671356 -1.499515,-1.499515 0,-0.828159 0.671356,-1.499515 1.499515,-1.499515 0.828159,0 1.499515,0.671356 1.499515,1.499515 z M 3.6813824,47.89047 c 0,0.828159 -0.6713556,1.499515 -1.4995147,1.499515 -0.8281591,0 -1.49951471,-0.671356 -1.49951471,-1.499515 0,-0.828159 0.67135561,-1.499515 1.49951471,-1.499515 0.8281591,0 1.4995147,0.671356 1.4995147,1.499515 z m 52.9990296,0 c 0,0.828159 -0.671356,1.499515 -1.499515,1.499515 -0.828159,0 -1.499515,-0.671356 -1.499515,-1.499515 0,-0.828159 0.671356,-1.499515 1.499515,-1.499515 0.828159,0 1.499515,0.671356 1.499515,1.499515 z M 3.6813824,88.889499 c 0,0.828159 -0.6713556,1.499515 -1.4995147,1.499515 -0.8281591,0 -1.49951471,-0.671356 -1.49951471,-1.499515 0,-0.828159 0.67135561,-1.499515 1.49951471,-1.499515 0.8281591,0 1.4995147,0.671356 1.4995147,1.499515 z m 52.9990296,0 c 0,0.828159 -0.671356,1.499515 -1.499515,1.499515 -0.828159,0 -1.499515,-0.671356 -1.499515,-1.499515 0,-0.828159 0.671356,-1.499515 1.499515,-1.499515 0.828159,0 1.499515,0.671356 1.499515,1.499515 z M 79.575429,28.892806 c 0,0.828159 -0.671356,1.499514 -1.499515,1.499514 -0.828159,0 -1.499515,-0.671355 -1.499515,-1.499514 0,-0.828159 0.671356,-1.499515 1.499515,-1.499515 0.828159,0 1.499515,0.671356 1.499515,1.499515 z m 56.999031,0 c 0,0.828159 -0.67135,1.499514 -1.49951,1.499514 -0.82816,0 -1.49951,-0.671355 -1.49951,-1.499514 0,-0.828159 0.67135,-1.499515 1.49951,-1.499515 0.82816,0 1.49951,0.671356 1.49951,1.499515 z M 79.575429,66.891835 c 0,0.828159 -0.671356,1.499515 -1.499515,1.499515 -0.828159,0 -1.499515,-0.671356 -1.499515,-1.499515 0,-0.828159 0.671356,-1.499515 1.499515,-1.499515 0.828159,0 1.499515,0.671356 1.499515,1.499515 z m 56.999031,0 c 0,0.828159 -0.67135,1.499515 -1.49951,1.499515 -0.82816,0 -1.49951,-0.671356 -1.49951,-1.499515 0,-0.828159 0.67135,-1.499515 1.49951,-1.499515 0.82816,0 1.49951,0.671356 1.49951,1.499515 z M 159.30877,6.8956463 c 0,0.828159 -0.67135,1.499515 -1.49951,1.499515 -0.82816,0 -1.49952,-0.671356 -1.49952,-1.499515 0,-0.828159 0.67136,-1.499514 1.49952,-1.499514 0.82816,0 1.49951,0.671355 1.49951,1.499514 z m 36.99903,0 c 0,0.828159 -0.67135,1.499515 -1.49951,1.499515 -0.82816,0 -1.49952,-0.671356 -1.49952,-1.499515 0,-0.828159 0.67136,-1.499514 1.49952,-1.499514 0.82816,0 1.49951,0.671355 1.49951,1.499514 z M 159.30877,47.894676 c 0,0.828159 -0.67135,1.499515 -1.49951,1.499515 -0.82816,0 -1.49952,-0.671356 -1.49952,-1.499515 0,-0.828159 0.67136,-1.499515 1.49952,-1.499515 0.82816,0 1.49951,0.671356 1.49951,1.499515 z m 36.99903,0 c 0,0.828159 -0.67135,1.499515 -1.49951,1.499515 -0.82816,0 -1.49952,-0.671356 -1.49952,-1.499515 0,-0.828159 0.67136,-1.499515 1.49952,-1.499515 0.82816,0 1.49951,0.671356 1.49951,1.499515 z m -36.99903,40.999029 c 0,0.828159 -0.67135,1.499515 -1.49951,1.499515 -0.82816,0 -1.49952,-0.671356 -1.49952,-1.499515 0,-0.828159 0.67136,-1.499515 1.49952,-1.499515 0.82816,0 1.49951,0.671356 1.49951,1.499515 z m 36.99903,0 c 0,0.828159 -0.67135,1.499515 -1.49951,1.499515 -0.82816,0 -1.49952,-0.671356 -1.49952,-1.499515 0,-0.828159 0.67136,-1.499515 1.49952,-1.499515 0.82816,0 1.49951,0.671356 1.49951,1.499515 z M 1.4215369,2.8970273 H 195.41213 c 1.662,0 3,1.338 3,3 V 89.887613 c 0,1.662 -1.338,3 -3,3 H 1.4215369 c -1.6619977,0 -2.9999959,-1.338 -2.9999959,-3 V 5.8970273 c 0,-1.662 1.3379982,-3 2.9999959,-3 z M 177.81085,118.8928 c 0,0.82827 -0.67145,1.49972 -1.49972,1.49972 -0.82827,0 -1.49972,-0.67145 -1.49972,-1.49972 0,-0.82827 0.67145,-1.49972 1.49972,-1.49972 0.82827,0 1.49972,0.67145 1.49972,1.49972 z m 0,37.99944 c 0,0.82827 -0.67145,1.49971 -1.49972,1.49971 -0.82827,0 -1.49972,-0.67144 -1.49972,-1.49971 0,-0.82828 0.67145,-1.49972 1.49972,-1.49972 0.82827,0 1.49972,0.67144 1.49972,1.49972 z M 165.9317,50.047257 h 20.75888 c 1.72591,0 3.11537,1.389455 3.11537,3.11537 v 20.758876 c 0,1.725914 -1.38946,3.115369 -3.11537,3.115369 H 165.9317 c -1.72591,0 -3.11537,-1.389455 -3.11537,-3.115369 V 53.162627 c 0,-1.725915 1.38946,-3.11537 3.11537,-3.11537 z M 18.08268,19.902711 c 0,1.87562 -1.520487,3.39611 -3.396104,3.39611 -1.875616,0 -3.396104,-1.52049 -3.396104,-3.39611 0,-1.87562 1.520488,-3.3961 3.396104,-3.3961 1.875617,0 3.396104,1.52048 3.396104,3.3961 z m 27.989611,0 c 0,1.87562 -1.520488,3.39611 -3.396104,3.39611 -1.875617,0 -3.396104,-1.52049 -3.396104,-3.39611 0,-1.87562 1.520487,-3.3961 3.396104,-3.3961 1.875616,0 3.396104,1.52048 3.396104,3.3961 z M 18.08268,47.892321 c 0,1.87562 -1.520487,3.3961 -3.396104,3.3961 -1.875616,0 -3.396104,-1.52048 -3.396104,-3.3961 0,-1.87562 1.520488,-3.3961 3.396104,-3.3961 1.875617,0 3.396104,1.52048 3.396104,3.3961 z m 27.989611,0 c 0,1.87562 -1.520488,3.3961 -3.396104,3.3961 -1.875617,0 -3.396104,-1.52048 -3.396104,-3.3961 0,-1.87562 1.520487,-3.3961 3.396104,-3.3961 1.875616,0 3.396104,1.52048 3.396104,3.3961 z M 18.08268,75.881931 c 0,1.87561 -1.520487,3.3961 -3.396104,3.3961 -1.875616,0 -3.396104,-1.52049 -3.396104,-3.3961 0,-1.87562 1.520488,-3.39611 3.396104,-3.39611 1.875617,0 3.396104,1.52049 3.396104,3.39611 z m 27.989611,0 c 0,1.87561 -1.520488,3.3961 -3.396104,3.3961 -1.875617,0 -3.396104,-1.52049 -3.396104,-3.3961 0,-1.87562 1.520487,-3.39611 3.396104,-3.39611 1.875616,0 3.396104,1.52049 3.396104,3.39611 z m 91.603139,-63.56511 v 14 h 14 v -14 z m -19.05,0 v 14 h 14 v -14 z m -19.050002,0 v 14 h 14.000002 v -14 z m -19.049999,0 v 14 h 14 v -14 z m -19.05,0 v 14 h 14 v -14 z m 76.200001,19.05 v 14 h 14 v -14 z m -19.05,0 v 14 h 14 v -14 z m -19.050002,0 v 14 h 14.000002 v -14 z m -19.049999,0 v 14 h 14 v -14 z m -19.05,0 v 14 h 14 v -14 z m 76.200001,19.05 v 14 h 14 v -14 z m -19.05,0 v 14 h 14 v -14 z m -19.050002,0 v 14 h 14.000002 v -14 z m -19.049999,0 v 14 h 14 v -14 z m -19.05,0 v 14 h 14 v -14 z m 76.200001,19.05 v 14 h 14 v -14 z m -19.05,0 v 14 h 14 v -14 z m -19.050002,0 v 14 h 14.000002 v -14 z m -19.049999,0 v 14 h 14 v -14 z m -19.05,0 v 14 h 14 v -14 z m 92.725001,16.526 H 58.950429 V 9.7918213 h 95.250001 z" /></g></svg>
