  0
SECTION
  2
HEADER
  9
$ACADVER
  1
AC1014
  9
$HANDSEED
  5
FFFF
  9
$INSUNITS
 70
     4
  9
$MEASUREMENT
 70
     1
  0
ENDSEC
  0
SECTION
  2
TABLES
  0
TABLE
  2
VPORT
  5
8
330
0
100
AcDbSymbolTable
 70
     4
  0
VPORT
  5
2E
330
8
100
AcDbSymbolTableRecord
100
AcDbViewportTableRecord
  2
*ACTIVE
 70
     0
 10
0.0
 20
0.0
 11
1.0
 21
1.0
 12
210.0
 22
148.5
 13
0.0
 23
0.0
 14
10.0
 24
10.0
 15
10.0
 25
10.0
 16
0.0
 26
0.0
 36
1.0
 17
0.0
 27
0.0
 37
0.0
 40
341.0
 41
1.24
 42
50.0
 43
0.0
 44
0.0
 50
0.0
 51
0.0
 71
     0
 72
   100
 73
     1
 74
     3
 75
     0
 76
     0
 77
     0
 78
     0
  0
ENDTAB
  0
TABLE
  2
LTYPE
  5
5
330
0
100
AcDbSymbolTable
 70
     1
  0
LTYPE
  5
14
330
5
100
AcDbSymbolTableRecord
100
AcDbLinetypeTableRecord
  2
BYBLOCK
 70
     0
  3

 72
    65
 73
     0
 40
0.0
  0
LTYPE
  5
15
330
5
100
AcDbSymbolTableRecord
100
AcDbLinetypeTableRecord
  2
BYLAYER
 70
     0
  3

 72
    65
 73
     0
 40
0.0
  0
LTYPE
  5
16
330
5
100
AcDbSymbolTableRecord
100
AcDbLinetypeTableRecord
  2
CONTINUOUS
 70
     0
  3
Solid line
 72
    65
 73
     0
 40
0.0
  0
ENDTAB
  0
TABLE
  2
LAYER
  5
2
100
AcDbSymbolTable
 70
2
  0
LAYER
  5
50
100
AcDbSymbolTableRecord
100
AcDbLayerTableRecord
  2
0
 70
0
  6
CONTINUOUS
  0
LAYER
  5
51
100
AcDbSymbolTableRecord
100
AcDbLayerTableRecord
  2
Layer_1
 70
0
  6
CONTINUOUS
  0
ENDTAB
  0
TABLE
  2
STYLE
  5
3
330
0
100
AcDbSymbolTable
 70
     1
  0
STYLE
  5
11
330
3
100
AcDbSymbolTableRecord
100
AcDbTextStyleTableRecord
  2
STANDARD
 70
     0
 40
0.0
 41
1.0
 50
0.0
 71
     0
 42
2.5
  3
txt
  4

  0
ENDTAB
  0
TABLE
  2
VIEW
  5
6
330
0
100
AcDbSymbolTable
 70
     0
  0
ENDTAB
  0
TABLE
  2
UCS
  5
7
330
0
100
AcDbSymbolTable
 70
     0
  0
ENDTAB
  0
TABLE
  2
APPID
  5
9
330
0
100
AcDbSymbolTable
 70
     2
  0
APPID
  5
12
330
9
100
AcDbSymbolTableRecord
100
AcDbRegAppTableRecord
  2
ACAD
 70
     0
  0
ENDTAB
  0
TABLE
  2
DIMSTYLE
  5
A
330
0
100
AcDbSymbolTable
 70
     1
  0
DIMSTYLE
105
27
330
A
100
AcDbSymbolTableRecord
100
AcDbDimStyleTableRecord
  2
ISO-25
 70
     0
  3

  4

  5

  6

  7

 40
1.0
 41
2.5
 42
0.625
 43
3.75
 44
1.25
 45
0.0
 46
0.0
 47
0.0
 48
0.0
140
2.5
141
2.5
142
0.0
143
0.03937007874016
144
1.0
145
0.0
146
1.0
147
0.625
 71
     0
 72
     0
 73
     0
 74
     0
 75
     0
 76
     0
 77
     1
 78
     8
170
     0
171
     3
172
     1
173
     0
174
     0
175
     0
176
     0
177
     0
178
     0
270
     2
271
     2
272
     2
273
     2
274
     3
340
11
275
     0
280
     0
281
     0
282
     0
283
     0
284
     8
285
     0
286
     0
287
     3
288
     0
  0
ENDTAB
  0
TABLE
  2
BLOCK_RECORD
  5
1
330
0
100
AcDbSymbolTable
 70
     1
  0
BLOCK_RECORD
  5
1F
330
1
100
AcDbSymbolTableRecord
100
AcDbBlockTableRecord
  2
*MODEL_SPACE
  0
BLOCK_RECORD
  5
1B
330
1
100
AcDbSymbolTableRecord
100
AcDbBlockTableRecord
  2
*PAPER_SPACE
  0
ENDTAB
  0
ENDSEC
  0
SECTION
  2
BLOCKS
  0
BLOCK
  5
20
330
1F
100
AcDbEntity
  8
0
100
AcDbBlockBegin
  2
*MODEL_SPACE
 70
     0
 10
0.0
 20
0.0
 30
0.0
  3
*MODEL_SPACE
  1

  0
ENDBLK
  5
21
330
1F
100
AcDbEntity
  8
0
100
AcDbBlockEnd
  0
BLOCK
  5
1C
330
1B
100
AcDbEntity
 67
     1
  8
0
100
AcDbBlockBegin
  2
*PAPER_SPACE
  1

  0
ENDBLK
  5
1D
330
1B
100
AcDbEntity
 67
     1
  8
0
100
AcDbBlockEnd
  0
ENDSEC
  0
SECTION
  2
ENTITIES
  0
SPLINE
  5
100
100
AcDbEntity
  8
Layer_1
 62
1
100
AcDbSpline
 70
8
 71
3
 72
8
 73
4
 74
0
 40
0
 40
0
 40
0
 40
0
 40
1
 40
1
 40
1
 40
1
 10
62.004218
 20
79.500502
 30
0.0
 10
63.666218
 20
79.500502
 30
0.0
 10
65.004218
 20
78.162502
 30
0.0
 10
65.004218
 20
76.500502
 30
0.0
  0
LWPOLYLINE
  5
101
100
AcDbEntity
  8
Layer_1
 62
1
100
AcDbPolyline
 90
2
 70
0
 10
13.004218
 20
79.500502
 30
0.0
 10
62.004218
 20
79.500502
 30
0.0
  0
SPLINE
  5
102
100
AcDbEntity
  8
Layer_1
 62
1
100
AcDbSpline
 70
8
 71
3
 72
8
 73
4
 74
0
 40
0
 40
0
 40
0
 40
0
 40
1
 40
1
 40
1
 40
1
 10
65.004218
 20
75.500502
 30
0.0
 10
65.004218
 20
73.838502
 30
0.0
 10
63.666218
 20
72.500502
 30
0.0
 10
62.004218
 20
72.500502
 30
0.0
  0
LWPOLYLINE
  5
103
100
AcDbEntity
  8
Layer_1
 62
1
100
AcDbPolyline
 90
2
 70
0
 10
65.004218
 20
76.500502
 30
0.0
 10
65.004218
 20
75.500502
 30
0.0
  0
SPLINE
  5
104
100
AcDbEntity
  8
Layer_1
 62
1
100
AcDbSpline
 70
8
 71
3
 72
8
 73
4
 74
0
 40
0
 40
0
 40
0
 40
0
 40
1
 40
1
 40
1
 40
1
 10
13.004218
 20
72.500502
 30
0.0
 10
11.342218
 20
72.500502
 30
0.0
 10
10.004218
 20
73.838502
 30
0.0
 10
10.004218
 20
75.500502
 30
0.0
  0
LWPOLYLINE
  5
105
100
AcDbEntity
  8
Layer_1
 62
1
100
AcDbPolyline
 90
2
 70
0
 10
62.004218
 20
72.500502
 30
0.0
 10
13.004218
 20
72.500502
 30
0.0
  0
SPLINE
  5
106
100
AcDbEntity
  8
Layer_1
 62
1
100
AcDbSpline
 70
8
 71
3
 72
8
 73
4
 74
0
 40
0
 40
0
 40
0
 40
0
 40
1
 40
1
 40
1
 40
1
 10
10.004218
 20
76.500502
 30
0.0
 10
10.004218
 20
78.162502
 30
0.0
 10
11.342218
 20
79.500502
 30
0.0
 10
13.004218
 20
79.500502
 30
0.0
  0
LWPOLYLINE
  5
107
100
AcDbEntity
  8
Layer_1
 62
1
100
AcDbPolyline
 90
2
 70
0
 10
10.004218
 20
75.500502
 30
0.0
 10
10.004218
 20
76.500502
 30
0.0
  0
LWPOLYLINE
  5
108
100
AcDbEntity
  8
Layer_1
 62
1
100
AcDbPolyline
 90
1
 70
1
 10
13.004218
 20
79.500502
 30
0.0
  0
SPLINE
  5
109
100
AcDbEntity
  8
Layer_1
 62
1
100
AcDbSpline
 70
8
 71
3
 72
8
 73
4
 74
0
 40
0
 40
0
 40
0
 40
0
 40
1
 40
1
 40
1
 40
1
 10
187.004215
 20
79.500502
 30
0.0
 10
188.666215
 20
79.500502
 30
0.0
 10
190.004215
 20
78.162502
 30
0.0
 10
190.004215
 20
76.500502
 30
0.0
  0
LWPOLYLINE
  5
10a
100
AcDbEntity
  8
Layer_1
 62
1
100
AcDbPolyline
 90
2
 70
0
 10
138.004215
 20
79.500502
 30
0.0
 10
187.004215
 20
79.500502
 30
0.0
  0
SPLINE
  5
10b
100
AcDbEntity
  8
Layer_1
 62
1
100
AcDbSpline
 70
8
 71
3
 72
8
 73
4
 74
0
 40
0
 40
0
 40
0
 40
0
 40
1
 40
1
 40
1
 40
1
 10
190.004215
 20
75.500502
 30
0.0
 10
190.004215
 20
73.838502
 30
0.0
 10
188.666215
 20
72.500502
 30
0.0
 10
187.004215
 20
72.500502
 30
0.0
  0
LWPOLYLINE
  5
10c
100
AcDbEntity
  8
Layer_1
 62
1
100
AcDbPolyline
 90
2
 70
0
 10
190.004215
 20
76.500502
 30
0.0
 10
190.004215
 20
75.500502
 30
0.0
  0
SPLINE
  5
10d
100
AcDbEntity
  8
Layer_1
 62
1
100
AcDbSpline
 70
8
 71
3
 72
8
 73
4
 74
0
 40
0
 40
0
 40
0
 40
0
 40
1
 40
1
 40
1
 40
1
 10
138.004215
 20
72.500502
 30
0.0
 10
136.342215
 20
72.500502
 30
0.0
 10
135.004215
 20
73.838502
 30
0.0
 10
135.004215
 20
75.500502
 30
0.0
  0
LWPOLYLINE
  5
10e
100
AcDbEntity
  8
Layer_1
 62
1
100
AcDbPolyline
 90
2
 70
0
 10
187.004215
 20
72.500502
 30
0.0
 10
138.004215
 20
72.500502
 30
0.0
  0
SPLINE
  5
10f
100
AcDbEntity
  8
Layer_1
 62
1
100
AcDbSpline
 70
8
 71
3
 72
8
 73
4
 74
0
 40
0
 40
0
 40
0
 40
0
 40
1
 40
1
 40
1
 40
1
 10
135.004215
 20
76.500502
 30
0.0
 10
135.004215
 20
78.162502
 30
0.0
 10
136.342215
 20
79.500502
 30
0.0
 10
138.004215
 20
79.500502
 30
0.0
  0
LWPOLYLINE
  5
110
100
AcDbEntity
  8
Layer_1
 62
1
100
AcDbPolyline
 90
2
 70
0
 10
135.004215
 20
75.500502
 30
0.0
 10
135.004215
 20
76.500502
 30
0.0
  0
LWPOLYLINE
  5
111
100
AcDbEntity
  8
Layer_1
 62
1
100
AcDbPolyline
 90
1
 70
1
 10
138.004215
 20
79.500502
 30
0.0
  0
SPLINE
  5
112
100
AcDbEntity
  8
Layer_1
 62
1
100
AcDbSpline
 70
8
 71
3
 72
8
 73
4
 74
0
 40
0
 40
0
 40
0
 40
0
 40
1
 40
1
 40
1
 40
1
 10
62.004218
 20
17.500502
 30
0.0
 10
63.666218
 20
17.500502
 30
0.0
 10
65.004218
 20
16.162502
 30
0.0
 10
65.004218
 20
14.500502
 30
0.0
  0
LWPOLYLINE
  5
113
100
AcDbEntity
  8
Layer_1
 62
1
100
AcDbPolyline
 90
2
 70
0
 10
13.004218
 20
17.500502
 30
0.0
 10
62.004218
 20
17.500502
 30
0.0
  0
SPLINE
  5
114
100
AcDbEntity
  8
Layer_1
 62
1
100
AcDbSpline
 70
8
 71
3
 72
8
 73
4
 74
0
 40
0
 40
0
 40
0
 40
0
 40
1
 40
1
 40
1
 40
1
 10
65.004218
 20
13.500502
 30
0.0
 10
65.004218
 20
11.838502
 30
0.0
 10
63.666218
 20
10.500502
 30
0.0
 10
62.004218
 20
10.500502
 30
0.0
  0
LWPOLYLINE
  5
115
100
AcDbEntity
  8
Layer_1
 62
1
100
AcDbPolyline
 90
2
 70
0
 10
65.004218
 20
14.500502
 30
0.0
 10
65.004218
 20
13.500502
 30
0.0
  0
SPLINE
  5
116
100
AcDbEntity
  8
Layer_1
 62
1
100
AcDbSpline
 70
8
 71
3
 72
8
 73
4
 74
0
 40
0
 40
0
 40
0
 40
0
 40
1
 40
1
 40
1
 40
1
 10
13.004218
 20
10.500502
 30
0.0
 10
11.342217
 20
10.500502
 30
0.0
 10
10.004217
 20
11.838502
 30
0.0
 10
10.004217
 20
13.500502
 30
0.0
  0
LWPOLYLINE
  5
117
100
AcDbEntity
  8
Layer_1
 62
1
100
AcDbPolyline
 90
2
 70
0
 10
62.004218
 20
10.500502
 30
0.0
 10
13.004218
 20
10.500502
 30
0.0
  0
SPLINE
  5
118
100
AcDbEntity
  8
Layer_1
 62
1
100
AcDbSpline
 70
8
 71
3
 72
8
 73
4
 74
0
 40
0
 40
0
 40
0
 40
0
 40
1
 40
1
 40
1
 40
1
 10
10.004217
 20
14.500502
 30
0.0
 10
10.004217
 20
16.162502
 30
0.0
 10
11.342217
 20
17.500502
 30
0.0
 10
13.004218
 20
17.500502
 30
0.0
  0
LWPOLYLINE
  5
119
100
AcDbEntity
  8
Layer_1
 62
1
100
AcDbPolyline
 90
2
 70
0
 10
10.004217
 20
13.500502
 30
0.0
 10
10.004217
 20
14.500502
 30
0.0
  0
LWPOLYLINE
  5
11a
100
AcDbEntity
  8
Layer_1
 62
1
100
AcDbPolyline
 90
1
 70
1
 10
13.004218
 20
17.500502
 30
0.0
  0
SPLINE
  5
11b
100
AcDbEntity
  8
Layer_1
 62
1
100
AcDbSpline
 70
8
 71
3
 72
8
 73
4
 74
0
 40
0
 40
0
 40
0
 40
0
 40
1
 40
1
 40
1
 40
1
 10
187.004215
 20
17.500502
 30
0.0
 10
188.666215
 20
17.500502
 30
0.0
 10
190.004215
 20
16.162502
 30
0.0
 10
190.004215
 20
14.500502
 30
0.0
  0
LWPOLYLINE
  5
11c
100
AcDbEntity
  8
Layer_1
 62
1
100
AcDbPolyline
 90
2
 70
0
 10
138.004215
 20
17.500502
 30
0.0
 10
187.004215
 20
17.500502
 30
0.0
  0
SPLINE
  5
11d
100
AcDbEntity
  8
Layer_1
 62
1
100
AcDbSpline
 70
8
 71
3
 72
8
 73
4
 74
0
 40
0
 40
0
 40
0
 40
0
 40
1
 40
1
 40
1
 40
1
 10
190.004215
 20
13.500502
 30
0.0
 10
190.004215
 20
11.838502
 30
0.0
 10
188.666215
 20
10.500502
 30
0.0
 10
187.004215
 20
10.500502
 30
0.0
  0
LWPOLYLINE
  5
11e
100
AcDbEntity
  8
Layer_1
 62
1
100
AcDbPolyline
 90
2
 70
0
 10
190.004215
 20
14.500502
 30
0.0
 10
190.004215
 20
13.500502
 30
0.0
  0
SPLINE
  5
11f
100
AcDbEntity
  8
Layer_1
 62
1
100
AcDbSpline
 70
8
 71
3
 72
8
 73
4
 74
0
 40
0
 40
0
 40
0
 40
0
 40
1
 40
1
 40
1
 40
1
 10
138.004215
 20
10.500502
 30
0.0
 10
136.342215
 20
10.500502
 30
0.0
 10
135.004215
 20
11.838502
 30
0.0
 10
135.004215
 20
13.500502
 30
0.0
  0
LWPOLYLINE
  5
120
100
AcDbEntity
  8
Layer_1
 62
1
100
AcDbPolyline
 90
2
 70
0
 10
187.004215
 20
10.500502
 30
0.0
 10
138.004215
 20
10.500502
 30
0.0
  0
SPLINE
  5
121
100
AcDbEntity
  8
Layer_1
 62
1
100
AcDbSpline
 70
8
 71
3
 72
8
 73
4
 74
0
 40
0
 40
0
 40
0
 40
0
 40
1
 40
1
 40
1
 40
1
 10
135.004215
 20
14.500502
 30
0.0
 10
135.004215
 20
16.162502
 30
0.0
 10
136.342215
 20
17.500502
 30
0.0
 10
138.004215
 20
17.500502
 30
0.0
  0
LWPOLYLINE
  5
122
100
AcDbEntity
  8
Layer_1
 62
1
100
AcDbPolyline
 90
2
 70
0
 10
135.004215
 20
13.500502
 30
0.0
 10
135.004215
 20
14.500502
 30
0.0
  0
SPLINE
  5
123
100
AcDbEntity
  8
Layer_1
 62
1
100
AcDbSpline
 70
8
 71
3
 72
8
 73
4
 74
0
 40
0
 40
0
 40
0
 40
0
 40
1
 40
1
 40
1
 40
1
 10
5.264547
 20
86.000881
 30
0.0
 10
5.264547
 20
85.172722
 30
0.0
 10
4.593191
 20
84.501366
 30
0.0
 10
3.765032
 20
84.501366
 30
0.0
  0
SPLINE
  5
124
100
AcDbEntity
  8
Layer_1
 62
1
100
AcDbSpline
 70
8
 71
3
 72
8
 73
4
 74
0
 40
0
 40
0
 40
0
 40
0
 40
1
 40
1
 40
1
 40
1
 10
3.765032
 20
84.501366
 30
0.0
 10
2.936873
 20
84.501366
 30
0.0
 10
2.265518
 20
85.172722
 30
0.0
 10
2.265518
 20
86.000881
 30
0.0
  0
SPLINE
  5
125
100
AcDbEntity
  8
Layer_1
 62
1
100
AcDbSpline
 70
8
 71
3
 72
8
 73
4
 74
0
 40
0
 40
0
 40
0
 40
0
 40
1
 40
1
 40
1
 40
1
 10
2.265518
 20
86.000881
 30
0.0
 10
2.265518
 20
86.829040
 30
0.0
 10
2.936873
 20
87.500396
 30
0.0
 10
3.765032
 20
87.500396
 30
0.0
  0
SPLINE
  5
126
100
AcDbEntity
  8
Layer_1
 62
1
100
AcDbSpline
 70
8
 71
3
 72
8
 73
4
 74
0
 40
0
 40
0
 40
0
 40
0
 40
1
 40
1
 40
1
 40
1
 10
3.765032
 20
87.500396
 30
0.0
 10
4.593191
 20
87.500396
 30
0.0
 10
5.264547
 20
86.829040
 30
0.0
 10
5.264547
 20
86.000881
 30
0.0
  0
LWPOLYLINE
  5
127
100
AcDbEntity
  8
Layer_1
 62
1
100
AcDbPolyline
 90
1
 70
1
 10
138.004215
 20
17.500502
 30
0.0
  0
SPLINE
  5
128
100
AcDbEntity
  8
Layer_1
 62
1
100
AcDbSpline
 70
8
 71
3
 72
8
 73
4
 74
0
 40
0
 40
0
 40
0
 40
0
 40
1
 40
1
 40
1
 40
1
 10
58.263577
 20
86.000881
 30
0.0
 10
58.263577
 20
85.172722
 30
0.0
 10
57.592221
 20
84.501366
 30
0.0
 10
56.764062
 20
84.501366
 30
0.0
  0
SPLINE
  5
129
100
AcDbEntity
  8
Layer_1
 62
1
100
AcDbSpline
 70
8
 71
3
 72
8
 73
4
 74
0
 40
0
 40
0
 40
0
 40
0
 40
1
 40
1
 40
1
 40
1
 10
56.764062
 20
84.501366
 30
0.0
 10
55.935903
 20
84.501366
 30
0.0
 10
55.264547
 20
85.172722
 30
0.0
 10
55.264547
 20
86.000881
 30
0.0
  0
SPLINE
  5
12a
100
AcDbEntity
  8
Layer_1
 62
1
100
AcDbSpline
 70
8
 71
3
 72
8
 73
4
 74
0
 40
0
 40
0
 40
0
 40
0
 40
1
 40
1
 40
1
 40
1
 10
55.264547
 20
86.000881
 30
0.0
 10
55.264547
 20
86.829040
 30
0.0
 10
55.935903
 20
87.500396
 30
0.0
 10
56.764062
 20
87.500396
 30
0.0
  0
SPLINE
  5
12b
100
AcDbEntity
  8
Layer_1
 62
1
100
AcDbSpline
 70
8
 71
3
 72
8
 73
4
 74
0
 40
0
 40
0
 40
0
 40
0
 40
1
 40
1
 40
1
 40
1
 10
56.764062
 20
87.500396
 30
0.0
 10
57.592221
 20
87.500396
 30
0.0
 10
58.263577
 20
86.829040
 30
0.0
 10
58.263577
 20
86.000881
 30
0.0
  0
LWPOLYLINE
  5
12c
100
AcDbEntity
  8
Layer_1
 62
1
100
AcDbPolyline
 90
1
 70
1
 10
5.264547
 20
86.000881
 30
0.0
  0
SPLINE
  5
12d
100
AcDbEntity
  8
Layer_1
 62
1
100
AcDbSpline
 70
8
 71
3
 72
8
 73
4
 74
0
 40
0
 40
0
 40
0
 40
0
 40
1
 40
1
 40
1
 40
1
 10
5.264547
 20
45.001852
 30
0.0
 10
5.264547
 20
44.173692
 30
0.0
 10
4.593191
 20
43.502332
 30
0.0
 10
3.765032
 20
43.502332
 30
0.0
  0
SPLINE
  5
12e
100
AcDbEntity
  8
Layer_1
 62
1
100
AcDbSpline
 70
8
 71
3
 72
8
 73
4
 74
0
 40
0
 40
0
 40
0
 40
0
 40
1
 40
1
 40
1
 40
1
 10
3.765032
 20
43.502332
 30
0.0
 10
2.936873
 20
43.502332
 30
0.0
 10
2.265518
 20
44.173692
 30
0.0
 10
2.265518
 20
45.001852
 30
0.0
  0
SPLINE
  5
12f
100
AcDbEntity
  8
Layer_1
 62
1
100
AcDbSpline
 70
8
 71
3
 72
8
 73
4
 74
0
 40
0
 40
0
 40
0
 40
0
 40
1
 40
1
 40
1
 40
1
 10
2.265518
 20
45.001852
 30
0.0
 10
2.265518
 20
45.830012
 30
0.0
 10
2.936873
 20
46.501362
 30
0.0
 10
3.765032
 20
46.501362
 30
0.0
  0
SPLINE
  5
130
100
AcDbEntity
  8
Layer_1
 62
1
100
AcDbSpline
 70
8
 71
3
 72
8
 73
4
 74
0
 40
0
 40
0
 40
0
 40
0
 40
1
 40
1
 40
1
 40
1
 10
3.765032
 20
46.501362
 30
0.0
 10
4.593191
 20
46.501362
 30
0.0
 10
5.264547
 20
45.830012
 30
0.0
 10
5.264547
 20
45.001852
 30
0.0
  0
LWPOLYLINE
  5
131
100
AcDbEntity
  8
Layer_1
 62
1
100
AcDbPolyline
 90
1
 70
1
 10
58.263577
 20
86.000881
 30
0.0
  0
SPLINE
  5
132
100
AcDbEntity
  8
Layer_1
 62
1
100
AcDbSpline
 70
8
 71
3
 72
8
 73
4
 74
0
 40
0
 40
0
 40
0
 40
0
 40
1
 40
1
 40
1
 40
1
 10
58.263577
 20
45.001852
 30
0.0
 10
58.263577
 20
44.173692
 30
0.0
 10
57.592221
 20
43.502332
 30
0.0
 10
56.764062
 20
43.502332
 30
0.0
  0
SPLINE
  5
133
100
AcDbEntity
  8
Layer_1
 62
1
100
AcDbSpline
 70
8
 71
3
 72
8
 73
4
 74
0
 40
0
 40
0
 40
0
 40
0
 40
1
 40
1
 40
1
 40
1
 10
56.764062
 20
43.502332
 30
0.0
 10
55.935903
 20
43.502332
 30
0.0
 10
55.264547
 20
44.173692
 30
0.0
 10
55.264547
 20
45.001852
 30
0.0
  0
SPLINE
  5
134
100
AcDbEntity
  8
Layer_1
 62
1
100
AcDbSpline
 70
8
 71
3
 72
8
 73
4
 74
0
 40
0
 40
0
 40
0
 40
0
 40
1
 40
1
 40
1
 40
1
 10
55.264547
 20
45.001852
 30
0.0
 10
55.264547
 20
45.830012
 30
0.0
 10
55.935903
 20
46.501362
 30
0.0
 10
56.764062
 20
46.501362
 30
0.0
  0
SPLINE
  5
135
100
AcDbEntity
  8
Layer_1
 62
1
100
AcDbSpline
 70
8
 71
3
 72
8
 73
4
 74
0
 40
0
 40
0
 40
0
 40
0
 40
1
 40
1
 40
1
 40
1
 10
56.764062
 20
46.501362
 30
0.0
 10
57.592221
 20
46.501362
 30
0.0
 10
58.263577
 20
45.830012
 30
0.0
 10
58.263577
 20
45.001852
 30
0.0
  0
LWPOLYLINE
  5
136
100
AcDbEntity
  8
Layer_1
 62
1
100
AcDbPolyline
 90
1
 70
1
 10
5.264547
 20
45.001852
 30
0.0
  0
SPLINE
  5
137
100
AcDbEntity
  8
Layer_1
 62
1
100
AcDbSpline
 70
8
 71
3
 72
8
 73
4
 74
0
 40
0
 40
0
 40
0
 40
0
 40
1
 40
1
 40
1
 40
1
 10
5.264547
 20
4.002822
 30
0.0
 10
5.264547
 20
3.174662
 30
0.0
 10
4.593191
 20
2.503312
 30
0.0
 10
3.765032
 20
2.503312
 30
0.0
  0
SPLINE
  5
138
100
AcDbEntity
  8
Layer_1
 62
1
100
AcDbSpline
 70
8
 71
3
 72
8
 73
4
 74
0
 40
0
 40
0
 40
0
 40
0
 40
1
 40
1
 40
1
 40
1
 10
3.765032
 20
2.503312
 30
0.0
 10
2.936873
 20
2.503312
 30
0.0
 10
2.265518
 20
3.174662
 30
0.0
 10
2.265518
 20
4.002822
 30
0.0
  0
SPLINE
  5
139
100
AcDbEntity
  8
Layer_1
 62
1
100
AcDbSpline
 70
8
 71
3
 72
8
 73
4
 74
0
 40
0
 40
0
 40
0
 40
0
 40
1
 40
1
 40
1
 40
1
 10
2.265518
 20
4.002822
 30
0.0
 10
2.265518
 20
4.830982
 30
0.0
 10
2.936873
 20
5.502342
 30
0.0
 10
3.765032
 20
5.502342
 30
0.0
  0
SPLINE
  5
13a
100
AcDbEntity
  8
Layer_1
 62
1
100
AcDbSpline
 70
8
 71
3
 72
8
 73
4
 74
0
 40
0
 40
0
 40
0
 40
0
 40
1
 40
1
 40
1
 40
1
 10
3.765032
 20
5.502342
 30
0.0
 10
4.593191
 20
5.502342
 30
0.0
 10
5.264547
 20
4.830982
 30
0.0
 10
5.264547
 20
4.002822
 30
0.0
  0
LWPOLYLINE
  5
13b
100
AcDbEntity
  8
Layer_1
 62
1
100
AcDbPolyline
 90
1
 70
1
 10
58.263577
 20
45.001852
 30
0.0
  0
SPLINE
  5
13c
100
AcDbEntity
  8
Layer_1
 62
1
100
AcDbSpline
 70
8
 71
3
 72
8
 73
4
 74
0
 40
0
 40
0
 40
0
 40
0
 40
1
 40
1
 40
1
 40
1
 10
58.263577
 20
4.002822
 30
0.0
 10
58.263577
 20
3.174662
 30
0.0
 10
57.592221
 20
2.503312
 30
0.0
 10
56.764062
 20
2.503312
 30
0.0
  0
SPLINE
  5
13d
100
AcDbEntity
  8
Layer_1
 62
1
100
AcDbSpline
 70
8
 71
3
 72
8
 73
4
 74
0
 40
0
 40
0
 40
0
 40
0
 40
1
 40
1
 40
1
 40
1
 10
56.764062
 20
2.503312
 30
0.0
 10
55.935903
 20
2.503312
 30
0.0
 10
55.264547
 20
3.174662
 30
0.0
 10
55.264547
 20
4.002822
 30
0.0
  0
SPLINE
  5
13e
100
AcDbEntity
  8
Layer_1
 62
1
100
AcDbSpline
 70
8
 71
3
 72
8
 73
4
 74
0
 40
0
 40
0
 40
0
 40
0
 40
1
 40
1
 40
1
 40
1
 10
55.264547
 20
4.002822
 30
0.0
 10
55.264547
 20
4.830982
 30
0.0
 10
55.935903
 20
5.502342
 30
0.0
 10
56.764062
 20
5.502342
 30
0.0
  0
SPLINE
  5
13f
100
AcDbEntity
  8
Layer_1
 62
1
100
AcDbSpline
 70
8
 71
3
 72
8
 73
4
 74
0
 40
0
 40
0
 40
0
 40
0
 40
1
 40
1
 40
1
 40
1
 10
56.764062
 20
5.502342
 30
0.0
 10
57.592221
 20
5.502342
 30
0.0
 10
58.263577
 20
4.830982
 30
0.0
 10
58.263577
 20
4.002822
 30
0.0
  0
LWPOLYLINE
  5
140
100
AcDbEntity
  8
Layer_1
 62
1
100
AcDbPolyline
 90
1
 70
1
 10
5.264547
 20
4.002822
 30
0.0
  0
SPLINE
  5
141
100
AcDbEntity
  8
Layer_1
 62
1
100
AcDbSpline
 70
8
 71
3
 72
8
 73
4
 74
0
 40
0
 40
0
 40
0
 40
0
 40
1
 40
1
 40
1
 40
1
 10
81.158594
 20
63.999512
 30
0.0
 10
81.158594
 20
63.171352
 30
0.0
 10
80.487238
 20
62.500002
 30
0.0
 10
79.659079
 20
62.500002
 30
0.0
  0
SPLINE
  5
142
100
AcDbEntity
  8
Layer_1
 62
1
100
AcDbSpline
 70
8
 71
3
 72
8
 73
4
 74
0
 40
0
 40
0
 40
0
 40
0
 40
1
 40
1
 40
1
 40
1
 10
79.659079
 20
62.500002
 30
0.0
 10
78.830920
 20
62.500002
 30
0.0
 10
78.159564
 20
63.171352
 30
0.0
 10
78.159564
 20
63.999512
 30
0.0
  0
SPLINE
  5
143
100
AcDbEntity
  8
Layer_1
 62
1
100
AcDbSpline
 70
8
 71
3
 72
8
 73
4
 74
0
 40
0
 40
0
 40
0
 40
0
 40
1
 40
1
 40
1
 40
1
 10
78.159564
 20
63.999512
 30
0.0
 10
78.159564
 20
64.827672
 30
0.0
 10
78.830920
 20
65.499032
 30
0.0
 10
79.659079
 20
65.499032
 30
0.0
  0
SPLINE
  5
144
100
AcDbEntity
  8
Layer_1
 62
1
100
AcDbSpline
 70
8
 71
3
 72
8
 73
4
 74
0
 40
0
 40
0
 40
0
 40
0
 40
1
 40
1
 40
1
 40
1
 10
79.659079
 20
65.499032
 30
0.0
 10
80.487238
 20
65.499032
 30
0.0
 10
81.158594
 20
64.827672
 30
0.0
 10
81.158594
 20
63.999512
 30
0.0
  0
LWPOLYLINE
  5
145
100
AcDbEntity
  8
Layer_1
 62
1
100
AcDbPolyline
 90
1
 70
1
 10
58.263577
 20
4.002822
 30
0.0
  0
SPLINE
  5
146
100
AcDbEntity
  8
Layer_1
 62
1
100
AcDbSpline
 70
8
 71
3
 72
8
 73
4
 74
0
 40
0
 40
0
 40
0
 40
0
 40
1
 40
1
 40
1
 40
1
 10
138.157625
 20
63.999512
 30
0.0
 10
138.157625
 20
63.171352
 30
0.0
 10
137.486275
 20
62.500002
 30
0.0
 10
136.658115
 20
62.500002
 30
0.0
  0
SPLINE
  5
147
100
AcDbEntity
  8
Layer_1
 62
1
100
AcDbSpline
 70
8
 71
3
 72
8
 73
4
 74
0
 40
0
 40
0
 40
0
 40
0
 40
1
 40
1
 40
1
 40
1
 10
136.658115
 20
62.500002
 30
0.0
 10
135.829955
 20
62.500002
 30
0.0
 10
135.158605
 20
63.171352
 30
0.0
 10
135.158605
 20
63.999512
 30
0.0
  0
SPLINE
  5
148
100
AcDbEntity
  8
Layer_1
 62
1
100
AcDbSpline
 70
8
 71
3
 72
8
 73
4
 74
0
 40
0
 40
0
 40
0
 40
0
 40
1
 40
1
 40
1
 40
1
 10
135.158605
 20
63.999512
 30
0.0
 10
135.158605
 20
64.827672
 30
0.0
 10
135.829955
 20
65.499032
 30
0.0
 10
136.658115
 20
65.499032
 30
0.0
  0
SPLINE
  5
149
100
AcDbEntity
  8
Layer_1
 62
1
100
AcDbSpline
 70
8
 71
3
 72
8
 73
4
 74
0
 40
0
 40
0
 40
0
 40
0
 40
1
 40
1
 40
1
 40
1
 10
136.658115
 20
65.499032
 30
0.0
 10
137.486275
 20
65.499032
 30
0.0
 10
138.157625
 20
64.827672
 30
0.0
 10
138.157625
 20
63.999512
 30
0.0
  0
LWPOLYLINE
  5
14a
100
AcDbEntity
  8
Layer_1
 62
1
100
AcDbPolyline
 90
1
 70
1
 10
81.158594
 20
63.999512
 30
0.0
  0
SPLINE
  5
14b
100
AcDbEntity
  8
Layer_1
 62
1
100
AcDbSpline
 70
8
 71
3
 72
8
 73
4
 74
0
 40
0
 40
0
 40
0
 40
0
 40
1
 40
1
 40
1
 40
1
 10
81.158594
 20
26.000482
 30
0.0
 10
81.158594
 20
25.172332
 30
0.0
 10
80.487238
 20
24.500972
 30
0.0
 10
79.659079
 20
24.500972
 30
0.0
  0
SPLINE
  5
14c
100
AcDbEntity
  8
Layer_1
 62
1
100
AcDbSpline
 70
8
 71
3
 72
8
 73
4
 74
0
 40
0
 40
0
 40
0
 40
0
 40
1
 40
1
 40
1
 40
1
 10
79.659079
 20
24.500972
 30
0.0
 10
78.830920
 20
24.500972
 30
0.0
 10
78.159564
 20
25.172332
 30
0.0
 10
78.159564
 20
26.000482
 30
0.0
  0
SPLINE
  5
14d
100
AcDbEntity
  8
Layer_1
 62
1
100
AcDbSpline
 70
8
 71
3
 72
8
 73
4
 74
0
 40
0
 40
0
 40
0
 40
0
 40
1
 40
1
 40
1
 40
1
 10
78.159564
 20
26.000482
 30
0.0
 10
78.159564
 20
26.828642
 30
0.0
 10
78.830920
 20
27.500002
 30
0.0
 10
79.659079
 20
27.500002
 30
0.0
  0
SPLINE
  5
14e
100
AcDbEntity
  8
Layer_1
 62
1
100
AcDbSpline
 70
8
 71
3
 72
8
 73
4
 74
0
 40
0
 40
0
 40
0
 40
0
 40
1
 40
1
 40
1
 40
1
 10
79.659079
 20
27.500002
 30
0.0
 10
80.487238
 20
27.500002
 30
0.0
 10
81.158594
 20
26.828642
 30
0.0
 10
81.158594
 20
26.000482
 30
0.0
  0
LWPOLYLINE
  5
14f
100
AcDbEntity
  8
Layer_1
 62
1
100
AcDbPolyline
 90
1
 70
1
 10
138.157625
 20
63.999512
 30
0.0
  0
SPLINE
  5
150
100
AcDbEntity
  8
Layer_1
 62
1
100
AcDbSpline
 70
8
 71
3
 72
8
 73
4
 74
0
 40
0
 40
0
 40
0
 40
0
 40
1
 40
1
 40
1
 40
1
 10
138.157625
 20
26.000482
 30
0.0
 10
138.157625
 20
25.172332
 30
0.0
 10
137.486275
 20
24.500972
 30
0.0
 10
136.658115
 20
24.500972
 30
0.0
  0
SPLINE
  5
151
100
AcDbEntity
  8
Layer_1
 62
1
100
AcDbSpline
 70
8
 71
3
 72
8
 73
4
 74
0
 40
0
 40
0
 40
0
 40
0
 40
1
 40
1
 40
1
 40
1
 10
136.658115
 20
24.500972
 30
0.0
 10
135.829955
 20
24.500972
 30
0.0
 10
135.158605
 20
25.172332
 30
0.0
 10
135.158605
 20
26.000482
 30
0.0
  0
SPLINE
  5
152
100
AcDbEntity
  8
Layer_1
 62
1
100
AcDbSpline
 70
8
 71
3
 72
8
 73
4
 74
0
 40
0
 40
0
 40
0
 40
0
 40
1
 40
1
 40
1
 40
1
 10
135.158605
 20
26.000482
 30
0.0
 10
135.158605
 20
26.828642
 30
0.0
 10
135.829955
 20
27.500002
 30
0.0
 10
136.658115
 20
27.500002
 30
0.0
  0
SPLINE
  5
153
100
AcDbEntity
  8
Layer_1
 62
1
100
AcDbSpline
 70
8
 71
3
 72
8
 73
4
 74
0
 40
0
 40
0
 40
0
 40
0
 40
1
 40
1
 40
1
 40
1
 10
136.658115
 20
27.500002
 30
0.0
 10
137.486275
 20
27.500002
 30
0.0
 10
138.157625
 20
26.828642
 30
0.0
 10
138.157625
 20
26.000482
 30
0.0
  0
LWPOLYLINE
  5
154
100
AcDbEntity
  8
Layer_1
 62
1
100
AcDbPolyline
 90
1
 70
1
 10
81.158594
 20
26.000482
 30
0.0
  0
SPLINE
  5
155
100
AcDbEntity
  8
Layer_1
 62
1
100
AcDbSpline
 70
8
 71
3
 72
8
 73
4
 74
0
 40
0
 40
0
 40
0
 40
0
 40
1
 40
1
 40
1
 40
1
 10
160.891935
 20
85.996675
 30
0.0
 10
160.891935
 20
85.168516
 30
0.0
 10
160.220585
 20
84.497161
 30
0.0
 10
159.392425
 20
84.497161
 30
0.0
  0
SPLINE
  5
156
100
AcDbEntity
  8
Layer_1
 62
1
100
AcDbSpline
 70
8
 71
3
 72
8
 73
4
 74
0
 40
0
 40
0
 40
0
 40
0
 40
1
 40
1
 40
1
 40
1
 10
159.392425
 20
84.497161
 30
0.0
 10
158.564265
 20
84.497161
 30
0.0
 10
157.892905
 20
85.168516
 30
0.0
 10
157.892905
 20
85.996675
 30
0.0
  0
SPLINE
  5
157
100
AcDbEntity
  8
Layer_1
 62
1
100
AcDbSpline
 70
8
 71
3
 72
8
 73
4
 74
0
 40
0
 40
0
 40
0
 40
0
 40
1
 40
1
 40
1
 40
1
 10
157.892905
 20
85.996675
 30
0.0
 10
157.892905
 20
86.824834
 30
0.0
 10
158.564265
 20
87.496190
 30
0.0
 10
159.392425
 20
87.496190
 30
0.0
  0
SPLINE
  5
158
100
AcDbEntity
  8
Layer_1
 62
1
100
AcDbSpline
 70
8
 71
3
 72
8
 73
4
 74
0
 40
0
 40
0
 40
0
 40
0
 40
1
 40
1
 40
1
 40
1
 10
159.392425
 20
87.496190
 30
0.0
 10
160.220585
 20
87.496190
 30
0.0
 10
160.891935
 20
86.824834
 30
0.0
 10
160.891935
 20
85.996675
 30
0.0
  0
LWPOLYLINE
  5
159
100
AcDbEntity
  8
Layer_1
 62
1
100
AcDbPolyline
 90
1
 70
1
 10
138.157625
 20
26.000482
 30
0.0
  0
SPLINE
  5
15a
100
AcDbEntity
  8
Layer_1
 62
1
100
AcDbSpline
 70
8
 71
3
 72
8
 73
4
 74
0
 40
0
 40
0
 40
0
 40
0
 40
1
 40
1
 40
1
 40
1
 10
197.890965
 20
85.996675
 30
0.0
 10
197.890965
 20
85.168516
 30
0.0
 10
197.219615
 20
84.497161
 30
0.0
 10
196.391455
 20
84.497161
 30
0.0
  0
SPLINE
  5
15b
100
AcDbEntity
  8
Layer_1
 62
1
100
AcDbSpline
 70
8
 71
3
 72
8
 73
4
 74
0
 40
0
 40
0
 40
0
 40
0
 40
1
 40
1
 40
1
 40
1
 10
196.391455
 20
84.497161
 30
0.0
 10
195.563295
 20
84.497161
 30
0.0
 10
194.891935
 20
85.168516
 30
0.0
 10
194.891935
 20
85.996675
 30
0.0
  0
SPLINE
  5
15c
100
AcDbEntity
  8
Layer_1
 62
1
100
AcDbSpline
 70
8
 71
3
 72
8
 73
4
 74
0
 40
0
 40
0
 40
0
 40
0
 40
1
 40
1
 40
1
 40
1
 10
194.891935
 20
85.996675
 30
0.0
 10
194.891935
 20
86.824834
 30
0.0
 10
195.563295
 20
87.496190
 30
0.0
 10
196.391455
 20
87.496190
 30
0.0
  0
SPLINE
  5
15d
100
AcDbEntity
  8
Layer_1
 62
1
100
AcDbSpline
 70
8
 71
3
 72
8
 73
4
 74
0
 40
0
 40
0
 40
0
 40
0
 40
1
 40
1
 40
1
 40
1
 10
196.391455
 20
87.496190
 30
0.0
 10
197.219615
 20
87.496190
 30
0.0
 10
197.890965
 20
86.824834
 30
0.0
 10
197.890965
 20
85.996675
 30
0.0
  0
LWPOLYLINE
  5
15e
100
AcDbEntity
  8
Layer_1
 62
1
100
AcDbPolyline
 90
1
 70
1
 10
160.891935
 20
85.996675
 30
0.0
  0
SPLINE
  5
15f
100
AcDbEntity
  8
Layer_1
 62
1
100
AcDbSpline
 70
8
 71
3
 72
8
 73
4
 74
0
 40
0
 40
0
 40
0
 40
0
 40
1
 40
1
 40
1
 40
1
 10
160.891935
 20
44.997642
 30
0.0
 10
160.891935
 20
44.169482
 30
0.0
 10
160.220585
 20
43.498132
 30
0.0
 10
159.392425
 20
43.498132
 30
0.0
  0
SPLINE
  5
160
100
AcDbEntity
  8
Layer_1
 62
1
100
AcDbSpline
 70
8
 71
3
 72
8
 73
4
 74
0
 40
0
 40
0
 40
0
 40
0
 40
1
 40
1
 40
1
 40
1
 10
159.392425
 20
43.498132
 30
0.0
 10
158.564265
 20
43.498132
 30
0.0
 10
157.892905
 20
44.169482
 30
0.0
 10
157.892905
 20
44.997642
 30
0.0
  0
SPLINE
  5
161
100
AcDbEntity
  8
Layer_1
 62
1
100
AcDbSpline
 70
8
 71
3
 72
8
 73
4
 74
0
 40
0
 40
0
 40
0
 40
0
 40
1
 40
1
 40
1
 40
1
 10
157.892905
 20
44.997642
 30
0.0
 10
157.892905
 20
45.825802
 30
0.0
 10
158.564265
 20
46.497162
 30
0.0
 10
159.392425
 20
46.497162
 30
0.0
  0
SPLINE
  5
162
100
AcDbEntity
  8
Layer_1
 62
1
100
AcDbSpline
 70
8
 71
3
 72
8
 73
4
 74
0
 40
0
 40
0
 40
0
 40
0
 40
1
 40
1
 40
1
 40
1
 10
159.392425
 20
46.497162
 30
0.0
 10
160.220585
 20
46.497162
 30
0.0
 10
160.891935
 20
45.825802
 30
0.0
 10
160.891935
 20
44.997642
 30
0.0
  0
LWPOLYLINE
  5
163
100
AcDbEntity
  8
Layer_1
 62
1
100
AcDbPolyline
 90
1
 70
1
 10
197.890965
 20
85.996675
 30
0.0
  0
SPLINE
  5
164
100
AcDbEntity
  8
Layer_1
 62
1
100
AcDbSpline
 70
8
 71
3
 72
8
 73
4
 74
0
 40
0
 40
0
 40
0
 40
0
 40
1
 40
1
 40
1
 40
1
 10
197.890965
 20
44.997642
 30
0.0
 10
197.890965
 20
44.169482
 30
0.0
 10
197.219615
 20
43.498132
 30
0.0
 10
196.391455
 20
43.498132
 30
0.0
  0
SPLINE
  5
165
100
AcDbEntity
  8
Layer_1
 62
1
100
AcDbSpline
 70
8
 71
3
 72
8
 73
4
 74
0
 40
0
 40
0
 40
0
 40
0
 40
1
 40
1
 40
1
 40
1
 10
196.391455
 20
43.498132
 30
0.0
 10
195.563295
 20
43.498132
 30
0.0
 10
194.891935
 20
44.169482
 30
0.0
 10
194.891935
 20
44.997642
 30
0.0
  0
SPLINE
  5
166
100
AcDbEntity
  8
Layer_1
 62
1
100
AcDbSpline
 70
8
 71
3
 72
8
 73
4
 74
0
 40
0
 40
0
 40
0
 40
0
 40
1
 40
1
 40
1
 40
1
 10
194.891935
 20
44.997642
 30
0.0
 10
194.891935
 20
45.825802
 30
0.0
 10
195.563295
 20
46.497162
 30
0.0
 10
196.391455
 20
46.497162
 30
0.0
  0
SPLINE
  5
167
100
AcDbEntity
  8
Layer_1
 62
1
100
AcDbSpline
 70
8
 71
3
 72
8
 73
4
 74
0
 40
0
 40
0
 40
0
 40
0
 40
1
 40
1
 40
1
 40
1
 10
196.391455
 20
46.497162
 30
0.0
 10
197.219615
 20
46.497162
 30
0.0
 10
197.890965
 20
45.825802
 30
0.0
 10
197.890965
 20
44.997642
 30
0.0
  0
LWPOLYLINE
  5
168
100
AcDbEntity
  8
Layer_1
 62
1
100
AcDbPolyline
 90
1
 70
1
 10
160.891935
 20
44.997642
 30
0.0
  0
SPLINE
  5
169
100
AcDbEntity
  8
Layer_1
 62
1
100
AcDbSpline
 70
8
 71
3
 72
8
 73
4
 74
0
 40
0
 40
0
 40
0
 40
0
 40
1
 40
1
 40
1
 40
1
 10
160.891935
 20
3.998612
 30
0.0
 10
160.891935
 20
3.170462
 30
0.0
 10
160.220585
 20
2.499102
 30
0.0
 10
159.392425
 20
2.499102
 30
0.0
  0
SPLINE
  5
16a
100
AcDbEntity
  8
Layer_1
 62
1
100
AcDbSpline
 70
8
 71
3
 72
8
 73
4
 74
0
 40
0
 40
0
 40
0
 40
0
 40
1
 40
1
 40
1
 40
1
 10
159.392425
 20
2.499102
 30
0.0
 10
158.564265
 20
2.499102
 30
0.0
 10
157.892905
 20
3.170462
 30
0.0
 10
157.892905
 20
3.998612
 30
0.0
  0
SPLINE
  5
16b
100
AcDbEntity
  8
Layer_1
 62
1
100
AcDbSpline
 70
8
 71
3
 72
8
 73
4
 74
0
 40
0
 40
0
 40
0
 40
0
 40
1
 40
1
 40
1
 40
1
 10
157.892905
 20
3.998612
 30
0.0
 10
157.892905
 20
4.826772
 30
0.0
 10
158.564265
 20
5.498132
 30
0.0
 10
159.392425
 20
5.498132
 30
0.0
  0
SPLINE
  5
16c
100
AcDbEntity
  8
Layer_1
 62
1
100
AcDbSpline
 70
8
 71
3
 72
8
 73
4
 74
0
 40
0
 40
0
 40
0
 40
0
 40
1
 40
1
 40
1
 40
1
 10
159.392425
 20
5.498132
 30
0.0
 10
160.220585
 20
5.498132
 30
0.0
 10
160.891935
 20
4.826772
 30
0.0
 10
160.891935
 20
3.998612
 30
0.0
  0
LWPOLYLINE
  5
16d
100
AcDbEntity
  8
Layer_1
 62
1
100
AcDbPolyline
 90
1
 70
1
 10
197.890965
 20
44.997642
 30
0.0
  0
SPLINE
  5
16e
100
AcDbEntity
  8
Layer_1
 62
1
100
AcDbSpline
 70
8
 71
3
 72
8
 73
4
 74
0
 40
0
 40
0
 40
0
 40
0
 40
1
 40
1
 40
1
 40
1
 10
197.890965
 20
3.998612
 30
0.0
 10
197.890965
 20
3.170462
 30
0.0
 10
197.219615
 20
2.499102
 30
0.0
 10
196.391455
 20
2.499102
 30
0.0
  0
SPLINE
  5
16f
100
AcDbEntity
  8
Layer_1
 62
1
100
AcDbSpline
 70
8
 71
3
 72
8
 73
4
 74
0
 40
0
 40
0
 40
0
 40
0
 40
1
 40
1
 40
1
 40
1
 10
196.391455
 20
2.499102
 30
0.0
 10
195.563295
 20
2.499102
 30
0.0
 10
194.891935
 20
3.170462
 30
0.0
 10
194.891935
 20
3.998612
 30
0.0
  0
SPLINE
  5
170
100
AcDbEntity
  8
Layer_1
 62
1
100
AcDbSpline
 70
8
 71
3
 72
8
 73
4
 74
0
 40
0
 40
0
 40
0
 40
0
 40
1
 40
1
 40
1
 40
1
 10
194.891935
 20
3.998612
 30
0.0
 10
194.891935
 20
4.826772
 30
0.0
 10
195.563295
 20
5.498132
 30
0.0
 10
196.391455
 20
5.498132
 30
0.0
  0
SPLINE
  5
171
100
AcDbEntity
  8
Layer_1
 62
1
100
AcDbSpline
 70
8
 71
3
 72
8
 73
4
 74
0
 40
0
 40
0
 40
0
 40
0
 40
1
 40
1
 40
1
 40
1
 10
196.391455
 20
5.498132
 30
0.0
 10
197.219615
 20
5.498132
 30
0.0
 10
197.890965
 20
4.826772
 30
0.0
 10
197.890965
 20
3.998612
 30
0.0
  0
LWPOLYLINE
  5
172
100
AcDbEntity
  8
Layer_1
 62
1
100
AcDbPolyline
 90
1
 70
1
 10
160.891935
 20
3.998612
 30
0.0
  0
LWPOLYLINE
  5
173
100
AcDbEntity
  8
Layer_1
 62
1
100
AcDbPolyline
 90
1
 70
1
 10
197.890965
 20
3.998612
 30
0.0
  0
SPLINE
  5
174
100
AcDbEntity
  8
Layer_1
 62
1
100
AcDbSpline
 70
8
 71
3
 72
8
 73
4
 74
0
 40
0
 40
0
 40
0
 40
0
 40
1
 40
1
 40
1
 40
1
 10
196.995295
 20
89.995294
 30
0.0
 10
198.657295
 20
89.995294
 30
0.0
 10
199.995295
 20
88.657294
 30
0.0
 10
199.995295
 20
86.995294
 30
0.0
  0
LWPOLYLINE
  5
175
100
AcDbEntity
  8
Layer_1
 62
1
100
AcDbPolyline
 90
2
 70
0
 10
3.004701
 20
89.995294
 30
0.0
 10
196.995295
 20
89.995294
 30
0.0
  0
SPLINE
  5
176
100
AcDbEntity
  8
Layer_1
 62
1
100
AcDbSpline
 70
8
 71
3
 72
8
 73
4
 74
0
 40
0
 40
0
 40
0
 40
0
 40
1
 40
1
 40
1
 40
1
 10
199.995295
 20
3.004712
 30
0.0
 10
199.995295
 20
1.342712
 30
0.0
 10
198.657295
 20
0.004712
 30
0.0
 10
196.995295
 20
0.004712
 30
0.0
  0
LWPOLYLINE
  5
177
100
AcDbEntity
  8
Layer_1
 62
1
100
AcDbPolyline
 90
2
 70
0
 10
199.995295
 20
86.995294
 30
0.0
 10
199.995295
 20
3.004712
 30
0.0
  0
SPLINE
  5
178
100
AcDbEntity
  8
Layer_1
 62
1
100
AcDbSpline
 70
8
 71
3
 72
8
 73
4
 74
0
 40
0
 40
0
 40
0
 40
0
 40
1
 40
1
 40
1
 40
1
 10
3.004701
 20
0.004712
 30
0.0
 10
1.342704
 20
0.004712
 30
0.0
 10
0.004706
 20
1.342712
 30
0.0
 10
0.004706
 20
3.004712
 30
0.0
  0
LWPOLYLINE
  5
179
100
AcDbEntity
  8
Layer_1
 62
1
100
AcDbPolyline
 90
2
 70
0
 10
196.995295
 20
0.004712
 30
0.0
 10
3.004701
 20
0.004712
 30
0.0
  0
SPLINE
  5
17a
100
AcDbEntity
  8
Layer_1
 62
1
100
AcDbSpline
 70
8
 71
3
 72
8
 73
4
 74
0
 40
0
 40
0
 40
0
 40
0
 40
1
 40
1
 40
1
 40
1
 10
0.004706
 20
86.995294
 30
0.0
 10
0.004706
 20
88.657294
 30
0.0
 10
1.342704
 20
89.995294
 30
0.0
 10
3.004701
 20
89.995294
 30
0.0
  0
LWPOLYLINE
  5
17b
100
AcDbEntity
  8
Layer_1
 62
1
100
AcDbPolyline
 90
2
 70
0
 10
0.004706
 20
3.004712
 30
0.0
 10
0.004706
 20
86.995294
 30
0.0
  0
SPLINE
  5
17c
100
AcDbEntity
  8
Layer_1
 62
1
100
AcDbSpline
 70
8
 71
3
 72
8
 73
4
 74
0
 40
0
 40
0
 40
0
 40
0
 40
1
 40
1
 40
1
 40
1
 10
5.264547
 20
176.000881
 30
0.0
 10
5.264547
 20
175.172722
 30
0.0
 10
4.593191
 20
174.501366
 30
0.0
 10
3.765032
 20
174.501366
 30
0.0
  0
SPLINE
  5
17d
100
AcDbEntity
  8
Layer_1
 62
1
100
AcDbSpline
 70
8
 71
3
 72
8
 73
4
 74
0
 40
0
 40
0
 40
0
 40
0
 40
1
 40
1
 40
1
 40
1
 10
3.765032
 20
174.501366
 30
0.0
 10
2.936873
 20
174.501366
 30
0.0
 10
2.265518
 20
175.172722
 30
0.0
 10
2.265518
 20
176.000881
 30
0.0
  0
SPLINE
  5
17e
100
AcDbEntity
  8
Layer_1
 62
1
100
AcDbSpline
 70
8
 71
3
 72
8
 73
4
 74
0
 40
0
 40
0
 40
0
 40
0
 40
1
 40
1
 40
1
 40
1
 10
2.265518
 20
176.000881
 30
0.0
 10
2.265518
 20
176.829040
 30
0.0
 10
2.936873
 20
177.500396
 30
0.0
 10
3.765032
 20
177.500396
 30
0.0
  0
SPLINE
  5
17f
100
AcDbEntity
  8
Layer_1
 62
1
100
AcDbSpline
 70
8
 71
3
 72
8
 73
4
 74
0
 40
0
 40
0
 40
0
 40
0
 40
1
 40
1
 40
1
 40
1
 10
3.765032
 20
177.500396
 30
0.0
 10
4.593191
 20
177.500396
 30
0.0
 10
5.264547
 20
176.829040
 30
0.0
 10
5.264547
 20
176.000881
 30
0.0
  0
LWPOLYLINE
  5
180
100
AcDbEntity
  8
Layer_1
 62
1
100
AcDbPolyline
 90
1
 70
1
 10
3.004701
 20
89.995294
 30
0.0
  0
SPLINE
  5
181
100
AcDbEntity
  8
Layer_1
 62
1
100
AcDbSpline
 70
8
 71
3
 72
8
 73
4
 74
0
 40
0
 40
0
 40
0
 40
0
 40
1
 40
1
 40
1
 40
1
 10
58.263577
 20
176.000881
 30
0.0
 10
58.263577
 20
175.172722
 30
0.0
 10
57.592221
 20
174.501366
 30
0.0
 10
56.764062
 20
174.501366
 30
0.0
  0
SPLINE
  5
182
100
AcDbEntity
  8
Layer_1
 62
1
100
AcDbSpline
 70
8
 71
3
 72
8
 73
4
 74
0
 40
0
 40
0
 40
0
 40
0
 40
1
 40
1
 40
1
 40
1
 10
56.764062
 20
174.501366
 30
0.0
 10
55.935903
 20
174.501366
 30
0.0
 10
55.264547
 20
175.172722
 30
0.0
 10
55.264547
 20
176.000881
 30
0.0
  0
SPLINE
  5
183
100
AcDbEntity
  8
Layer_1
 62
1
100
AcDbSpline
 70
8
 71
3
 72
8
 73
4
 74
0
 40
0
 40
0
 40
0
 40
0
 40
1
 40
1
 40
1
 40
1
 10
55.264547
 20
176.000881
 30
0.0
 10
55.264547
 20
176.829040
 30
0.0
 10
55.935903
 20
177.500396
 30
0.0
 10
56.764062
 20
177.500396
 30
0.0
  0
SPLINE
  5
184
100
AcDbEntity
  8
Layer_1
 62
1
100
AcDbSpline
 70
8
 71
3
 72
8
 73
4
 74
0
 40
0
 40
0
 40
0
 40
0
 40
1
 40
1
 40
1
 40
1
 10
56.764062
 20
177.500396
 30
0.0
 10
57.592221
 20
177.500396
 30
0.0
 10
58.263577
 20
176.829040
 30
0.0
 10
58.263577
 20
176.000881
 30
0.0
  0
LWPOLYLINE
  5
185
100
AcDbEntity
  8
Layer_1
 62
1
100
AcDbPolyline
 90
1
 70
1
 10
5.264547
 20
176.000881
 30
0.0
  0
SPLINE
  5
186
100
AcDbEntity
  8
Layer_1
 62
1
100
AcDbSpline
 70
8
 71
3
 72
8
 73
4
 74
0
 40
0
 40
0
 40
0
 40
0
 40
1
 40
1
 40
1
 40
1
 10
5.264547
 20
135.001852
 30
0.0
 10
5.264547
 20
134.173693
 30
0.0
 10
4.593191
 20
133.502337
 30
0.0
 10
3.765032
 20
133.502337
 30
0.0
  0
SPLINE
  5
187
100
AcDbEntity
  8
Layer_1
 62
1
100
AcDbSpline
 70
8
 71
3
 72
8
 73
4
 74
0
 40
0
 40
0
 40
0
 40
0
 40
1
 40
1
 40
1
 40
1
 10
3.765032
 20
133.502337
 30
0.0
 10
2.936873
 20
133.502337
 30
0.0
 10
2.265518
 20
134.173693
 30
0.0
 10
2.265518
 20
135.001852
 30
0.0
  0
SPLINE
  5
188
100
AcDbEntity
  8
Layer_1
 62
1
100
AcDbSpline
 70
8
 71
3
 72
8
 73
4
 74
0
 40
0
 40
0
 40
0
 40
0
 40
1
 40
1
 40
1
 40
1
 10
2.265518
 20
135.001852
 30
0.0
 10
2.265518
 20
135.830011
 30
0.0
 10
2.936873
 20
136.501367
 30
0.0
 10
3.765032
 20
136.501367
 30
0.0
  0
SPLINE
  5
189
100
AcDbEntity
  8
Layer_1
 62
1
100
AcDbSpline
 70
8
 71
3
 72
8
 73
4
 74
0
 40
0
 40
0
 40
0
 40
0
 40
1
 40
1
 40
1
 40
1
 10
3.765032
 20
136.501367
 30
0.0
 10
4.593191
 20
136.501367
 30
0.0
 10
5.264547
 20
135.830011
 30
0.0
 10
5.264547
 20
135.001852
 30
0.0
  0
LWPOLYLINE
  5
18a
100
AcDbEntity
  8
Layer_1
 62
1
100
AcDbPolyline
 90
1
 70
1
 10
58.263577
 20
176.000881
 30
0.0
  0
SPLINE
  5
18b
100
AcDbEntity
  8
Layer_1
 62
1
100
AcDbSpline
 70
8
 71
3
 72
8
 73
4
 74
0
 40
0
 40
0
 40
0
 40
0
 40
1
 40
1
 40
1
 40
1
 10
58.263577
 20
135.001852
 30
0.0
 10
58.263577
 20
134.173693
 30
0.0
 10
57.592221
 20
133.502337
 30
0.0
 10
56.764062
 20
133.502337
 30
0.0
  0
SPLINE
  5
18c
100
AcDbEntity
  8
Layer_1
 62
1
100
AcDbSpline
 70
8
 71
3
 72
8
 73
4
 74
0
 40
0
 40
0
 40
0
 40
0
 40
1
 40
1
 40
1
 40
1
 10
56.764062
 20
133.502337
 30
0.0
 10
55.935903
 20
133.502337
 30
0.0
 10
55.264547
 20
134.173693
 30
0.0
 10
55.264547
 20
135.001852
 30
0.0
  0
SPLINE
  5
18d
100
AcDbEntity
  8
Layer_1
 62
1
100
AcDbSpline
 70
8
 71
3
 72
8
 73
4
 74
0
 40
0
 40
0
 40
0
 40
0
 40
1
 40
1
 40
1
 40
1
 10
55.264547
 20
135.001852
 30
0.0
 10
55.264547
 20
135.830011
 30
0.0
 10
55.935903
 20
136.501367
 30
0.0
 10
56.764062
 20
136.501367
 30
0.0
  0
SPLINE
  5
18e
100
AcDbEntity
  8
Layer_1
 62
1
100
AcDbSpline
 70
8
 71
3
 72
8
 73
4
 74
0
 40
0
 40
0
 40
0
 40
0
 40
1
 40
1
 40
1
 40
1
 10
56.764062
 20
136.501367
 30
0.0
 10
57.592221
 20
136.501367
 30
0.0
 10
58.263577
 20
135.830011
 30
0.0
 10
58.263577
 20
135.001852
 30
0.0
  0
LWPOLYLINE
  5
18f
100
AcDbEntity
  8
Layer_1
 62
1
100
AcDbPolyline
 90
1
 70
1
 10
5.264547
 20
135.001852
 30
0.0
  0
SPLINE
  5
190
100
AcDbEntity
  8
Layer_1
 62
1
100
AcDbSpline
 70
8
 71
3
 72
8
 73
4
 74
0
 40
0
 40
0
 40
0
 40
0
 40
1
 40
1
 40
1
 40
1
 10
5.264547
 20
94.002823
 30
0.0
 10
5.264547
 20
93.174664
 30
0.0
 10
4.593191
 20
92.503308
 30
0.0
 10
3.765032
 20
92.503308
 30
0.0
  0
SPLINE
  5
191
100
AcDbEntity
  8
Layer_1
 62
1
100
AcDbSpline
 70
8
 71
3
 72
8
 73
4
 74
0
 40
0
 40
0
 40
0
 40
0
 40
1
 40
1
 40
1
 40
1
 10
3.765032
 20
92.503308
 30
0.0
 10
2.936873
 20
92.503308
 30
0.0
 10
2.265518
 20
93.174664
 30
0.0
 10
2.265518
 20
94.002823
 30
0.0
  0
SPLINE
  5
192
100
AcDbEntity
  8
Layer_1
 62
1
100
AcDbSpline
 70
8
 71
3
 72
8
 73
4
 74
0
 40
0
 40
0
 40
0
 40
0
 40
1
 40
1
 40
1
 40
1
 10
2.265518
 20
94.002823
 30
0.0
 10
2.265518
 20
94.830982
 30
0.0
 10
2.936873
 20
95.502338
 30
0.0
 10
3.765032
 20
95.502338
 30
0.0
  0
SPLINE
  5
193
100
AcDbEntity
  8
Layer_1
 62
1
100
AcDbSpline
 70
8
 71
3
 72
8
 73
4
 74
0
 40
0
 40
0
 40
0
 40
0
 40
1
 40
1
 40
1
 40
1
 10
3.765032
 20
95.502338
 30
0.0
 10
4.593191
 20
95.502338
 30
0.0
 10
5.264547
 20
94.830982
 30
0.0
 10
5.264547
 20
94.002823
 30
0.0
  0
LWPOLYLINE
  5
194
100
AcDbEntity
  8
Layer_1
 62
1
100
AcDbPolyline
 90
1
 70
1
 10
58.263577
 20
135.001852
 30
0.0
  0
SPLINE
  5
195
100
AcDbEntity
  8
Layer_1
 62
1
100
AcDbSpline
 70
8
 71
3
 72
8
 73
4
 74
0
 40
0
 40
0
 40
0
 40
0
 40
1
 40
1
 40
1
 40
1
 10
58.263577
 20
94.002823
 30
0.0
 10
58.263577
 20
93.174664
 30
0.0
 10
57.592221
 20
92.503308
 30
0.0
 10
56.764062
 20
92.503308
 30
0.0
  0
SPLINE
  5
196
100
AcDbEntity
  8
Layer_1
 62
1
100
AcDbSpline
 70
8
 71
3
 72
8
 73
4
 74
0
 40
0
 40
0
 40
0
 40
0
 40
1
 40
1
 40
1
 40
1
 10
56.764062
 20
92.503308
 30
0.0
 10
55.935903
 20
92.503308
 30
0.0
 10
55.264547
 20
93.174664
 30
0.0
 10
55.264547
 20
94.002823
 30
0.0
  0
SPLINE
  5
197
100
AcDbEntity
  8
Layer_1
 62
1
100
AcDbSpline
 70
8
 71
3
 72
8
 73
4
 74
0
 40
0
 40
0
 40
0
 40
0
 40
1
 40
1
 40
1
 40
1
 10
55.264547
 20
94.002823
 30
0.0
 10
55.264547
 20
94.830982
 30
0.0
 10
55.935903
 20
95.502338
 30
0.0
 10
56.764062
 20
95.502338
 30
0.0
  0
SPLINE
  5
198
100
AcDbEntity
  8
Layer_1
 62
1
100
AcDbSpline
 70
8
 71
3
 72
8
 73
4
 74
0
 40
0
 40
0
 40
0
 40
0
 40
1
 40
1
 40
1
 40
1
 10
56.764062
 20
95.502338
 30
0.0
 10
57.592221
 20
95.502338
 30
0.0
 10
58.263577
 20
94.830982
 30
0.0
 10
58.263577
 20
94.002823
 30
0.0
  0
LWPOLYLINE
  5
199
100
AcDbEntity
  8
Layer_1
 62
1
100
AcDbPolyline
 90
1
 70
1
 10
5.264547
 20
94.002823
 30
0.0
  0
SPLINE
  5
19a
100
AcDbEntity
  8
Layer_1
 62
1
100
AcDbSpline
 70
8
 71
3
 72
8
 73
4
 74
0
 40
0
 40
0
 40
0
 40
0
 40
1
 40
1
 40
1
 40
1
 10
81.158594
 20
153.999516
 30
0.0
 10
81.158594
 20
153.171357
 30
0.0
 10
80.487238
 20
152.500002
 30
0.0
 10
79.659079
 20
152.500002
 30
0.0
  0
SPLINE
  5
19b
100
AcDbEntity
  8
Layer_1
 62
1
100
AcDbSpline
 70
8
 71
3
 72
8
 73
4
 74
0
 40
0
 40
0
 40
0
 40
0
 40
1
 40
1
 40
1
 40
1
 10
79.659079
 20
152.500002
 30
0.0
 10
78.830920
 20
152.500002
 30
0.0
 10
78.159564
 20
153.171357
 30
0.0
 10
78.159564
 20
153.999516
 30
0.0
  0
SPLINE
  5
19c
100
AcDbEntity
  8
Layer_1
 62
1
100
AcDbSpline
 70
8
 71
3
 72
8
 73
4
 74
0
 40
0
 40
0
 40
0
 40
0
 40
1
 40
1
 40
1
 40
1
 10
78.159564
 20
153.999516
 30
0.0
 10
78.159564
 20
154.827675
 30
0.0
 10
78.830920
 20
155.499031
 30
0.0
 10
79.659079
 20
155.499031
 30
0.0
  0
SPLINE
  5
19d
100
AcDbEntity
  8
Layer_1
 62
1
100
AcDbSpline
 70
8
 71
3
 72
8
 73
4
 74
0
 40
0
 40
0
 40
0
 40
0
 40
1
 40
1
 40
1
 40
1
 10
79.659079
 20
155.499031
 30
0.0
 10
80.487238
 20
155.499031
 30
0.0
 10
81.158594
 20
154.827675
 30
0.0
 10
81.158594
 20
153.999516
 30
0.0
  0
LWPOLYLINE
  5
19e
100
AcDbEntity
  8
Layer_1
 62
1
100
AcDbPolyline
 90
1
 70
1
 10
58.263577
 20
94.002823
 30
0.0
  0
SPLINE
  5
19f
100
AcDbEntity
  8
Layer_1
 62
1
100
AcDbSpline
 70
8
 71
3
 72
8
 73
4
 74
0
 40
0
 40
0
 40
0
 40
0
 40
1
 40
1
 40
1
 40
1
 10
138.157625
 20
153.999516
 30
0.0
 10
138.157625
 20
153.171357
 30
0.0
 10
137.486275
 20
152.500002
 30
0.0
 10
136.658115
 20
152.500002
 30
0.0
  0
SPLINE
  5
1a0
100
AcDbEntity
  8
Layer_1
 62
1
100
AcDbSpline
 70
8
 71
3
 72
8
 73
4
 74
0
 40
0
 40
0
 40
0
 40
0
 40
1
 40
1
 40
1
 40
1
 10
136.658115
 20
152.500002
 30
0.0
 10
135.829955
 20
152.500002
 30
0.0
 10
135.158605
 20
153.171357
 30
0.0
 10
135.158605
 20
153.999516
 30
0.0
  0
SPLINE
  5
1a1
100
AcDbEntity
  8
Layer_1
 62
1
100
AcDbSpline
 70
8
 71
3
 72
8
 73
4
 74
0
 40
0
 40
0
 40
0
 40
0
 40
1
 40
1
 40
1
 40
1
 10
135.158605
 20
153.999516
 30
0.0
 10
135.158605
 20
154.827675
 30
0.0
 10
135.829955
 20
155.499031
 30
0.0
 10
136.658115
 20
155.499031
 30
0.0
  0
SPLINE
  5
1a2
100
AcDbEntity
  8
Layer_1
 62
1
100
AcDbSpline
 70
8
 71
3
 72
8
 73
4
 74
0
 40
0
 40
0
 40
0
 40
0
 40
1
 40
1
 40
1
 40
1
 10
136.658115
 20
155.499031
 30
0.0
 10
137.486275
 20
155.499031
 30
0.0
 10
138.157625
 20
154.827675
 30
0.0
 10
138.157625
 20
153.999516
 30
0.0
  0
LWPOLYLINE
  5
1a3
100
AcDbEntity
  8
Layer_1
 62
1
100
AcDbPolyline
 90
1
 70
1
 10
81.158594
 20
153.999516
 30
0.0
  0
SPLINE
  5
1a4
100
AcDbEntity
  8
Layer_1
 62
1
100
AcDbSpline
 70
8
 71
3
 72
8
 73
4
 74
0
 40
0
 40
0
 40
0
 40
0
 40
1
 40
1
 40
1
 40
1
 10
81.158594
 20
116.000487
 30
0.0
 10
81.158594
 20
115.172328
 30
0.0
 10
80.487238
 20
114.500972
 30
0.0
 10
79.659079
 20
114.500972
 30
0.0
  0
SPLINE
  5
1a5
100
AcDbEntity
  8
Layer_1
 62
1
100
AcDbSpline
 70
8
 71
3
 72
8
 73
4
 74
0
 40
0
 40
0
 40
0
 40
0
 40
1
 40
1
 40
1
 40
1
 10
79.659079
 20
114.500972
 30
0.0
 10
78.830920
 20
114.500972
 30
0.0
 10
78.159564
 20
115.172328
 30
0.0
 10
78.159564
 20
116.000487
 30
0.0
  0
SPLINE
  5
1a6
100
AcDbEntity
  8
Layer_1
 62
1
100
AcDbSpline
 70
8
 71
3
 72
8
 73
4
 74
0
 40
0
 40
0
 40
0
 40
0
 40
1
 40
1
 40
1
 40
1
 10
78.159564
 20
116.000487
 30
0.0
 10
78.159564
 20
116.828646
 30
0.0
 10
78.830920
 20
117.500002
 30
0.0
 10
79.659079
 20
117.500002
 30
0.0
  0
SPLINE
  5
1a7
100
AcDbEntity
  8
Layer_1
 62
1
100
AcDbSpline
 70
8
 71
3
 72
8
 73
4
 74
0
 40
0
 40
0
 40
0
 40
0
 40
1
 40
1
 40
1
 40
1
 10
79.659079
 20
117.500002
 30
0.0
 10
80.487238
 20
117.500002
 30
0.0
 10
81.158594
 20
116.828646
 30
0.0
 10
81.158594
 20
116.000487
 30
0.0
  0
LWPOLYLINE
  5
1a8
100
AcDbEntity
  8
Layer_1
 62
1
100
AcDbPolyline
 90
1
 70
1
 10
138.157625
 20
153.999516
 30
0.0
  0
SPLINE
  5
1a9
100
AcDbEntity
  8
Layer_1
 62
1
100
AcDbSpline
 70
8
 71
3
 72
8
 73
4
 74
0
 40
0
 40
0
 40
0
 40
0
 40
1
 40
1
 40
1
 40
1
 10
138.157625
 20
116.000487
 30
0.0
 10
138.157625
 20
115.172328
 30
0.0
 10
137.486275
 20
114.500972
 30
0.0
 10
136.658115
 20
114.500972
 30
0.0
  0
SPLINE
  5
1aa
100
AcDbEntity
  8
Layer_1
 62
1
100
AcDbSpline
 70
8
 71
3
 72
8
 73
4
 74
0
 40
0
 40
0
 40
0
 40
0
 40
1
 40
1
 40
1
 40
1
 10
136.658115
 20
114.500972
 30
0.0
 10
135.829955
 20
114.500972
 30
0.0
 10
135.158605
 20
115.172328
 30
0.0
 10
135.158605
 20
116.000487
 30
0.0
  0
SPLINE
  5
1ab
100
AcDbEntity
  8
Layer_1
 62
1
100
AcDbSpline
 70
8
 71
3
 72
8
 73
4
 74
0
 40
0
 40
0
 40
0
 40
0
 40
1
 40
1
 40
1
 40
1
 10
135.158605
 20
116.000487
 30
0.0
 10
135.158605
 20
116.828646
 30
0.0
 10
135.829955
 20
117.500002
 30
0.0
 10
136.658115
 20
117.500002
 30
0.0
  0
SPLINE
  5
1ac
100
AcDbEntity
  8
Layer_1
 62
1
100
AcDbSpline
 70
8
 71
3
 72
8
 73
4
 74
0
 40
0
 40
0
 40
0
 40
0
 40
1
 40
1
 40
1
 40
1
 10
136.658115
 20
117.500002
 30
0.0
 10
137.486275
 20
117.500002
 30
0.0
 10
138.157625
 20
116.828646
 30
0.0
 10
138.157625
 20
116.000487
 30
0.0
  0
LWPOLYLINE
  5
1ad
100
AcDbEntity
  8
Layer_1
 62
1
100
AcDbPolyline
 90
1
 70
1
 10
81.158594
 20
116.000487
 30
0.0
  0
SPLINE
  5
1ae
100
AcDbEntity
  8
Layer_1
 62
1
100
AcDbSpline
 70
8
 71
3
 72
8
 73
4
 74
0
 40
0
 40
0
 40
0
 40
0
 40
1
 40
1
 40
1
 40
1
 10
160.891935
 20
175.996676
 30
0.0
 10
160.891935
 20
175.168517
 30
0.0
 10
160.220585
 20
174.497161
 30
0.0
 10
159.392425
 20
174.497161
 30
0.0
  0
SPLINE
  5
1af
100
AcDbEntity
  8
Layer_1
 62
1
100
AcDbSpline
 70
8
 71
3
 72
8
 73
4
 74
0
 40
0
 40
0
 40
0
 40
0
 40
1
 40
1
 40
1
 40
1
 10
159.392425
 20
174.497161
 30
0.0
 10
158.564265
 20
174.497161
 30
0.0
 10
157.892905
 20
175.168517
 30
0.0
 10
157.892905
 20
175.996676
 30
0.0
  0
SPLINE
  5
1b0
100
AcDbEntity
  8
Layer_1
 62
1
100
AcDbSpline
 70
8
 71
3
 72
8
 73
4
 74
0
 40
0
 40
0
 40
0
 40
0
 40
1
 40
1
 40
1
 40
1
 10
157.892905
 20
175.996676
 30
0.0
 10
157.892905
 20
176.824835
 30
0.0
 10
158.564265
 20
177.496190
 30
0.0
 10
159.392425
 20
177.496190
 30
0.0
  0
SPLINE
  5
1b1
100
AcDbEntity
  8
Layer_1
 62
1
100
AcDbSpline
 70
8
 71
3
 72
8
 73
4
 74
0
 40
0
 40
0
 40
0
 40
0
 40
1
 40
1
 40
1
 40
1
 10
159.392425
 20
177.496190
 30
0.0
 10
160.220585
 20
177.496190
 30
0.0
 10
160.891935
 20
176.824835
 30
0.0
 10
160.891935
 20
175.996676
 30
0.0
  0
LWPOLYLINE
  5
1b2
100
AcDbEntity
  8
Layer_1
 62
1
100
AcDbPolyline
 90
1
 70
1
 10
138.157625
 20
116.000487
 30
0.0
  0
SPLINE
  5
1b3
100
AcDbEntity
  8
Layer_1
 62
1
100
AcDbSpline
 70
8
 71
3
 72
8
 73
4
 74
0
 40
0
 40
0
 40
0
 40
0
 40
1
 40
1
 40
1
 40
1
 10
197.890965
 20
175.996676
 30
0.0
 10
197.890965
 20
175.168517
 30
0.0
 10
197.219615
 20
174.497161
 30
0.0
 10
196.391455
 20
174.497161
 30
0.0
  0
SPLINE
  5
1b4
100
AcDbEntity
  8
Layer_1
 62
1
100
AcDbSpline
 70
8
 71
3
 72
8
 73
4
 74
0
 40
0
 40
0
 40
0
 40
0
 40
1
 40
1
 40
1
 40
1
 10
196.391455
 20
174.497161
 30
0.0
 10
195.563295
 20
174.497161
 30
0.0
 10
194.891935
 20
175.168517
 30
0.0
 10
194.891935
 20
175.996676
 30
0.0
  0
SPLINE
  5
1b5
100
AcDbEntity
  8
Layer_1
 62
1
100
AcDbSpline
 70
8
 71
3
 72
8
 73
4
 74
0
 40
0
 40
0
 40
0
 40
0
 40
1
 40
1
 40
1
 40
1
 10
194.891935
 20
175.996676
 30
0.0
 10
194.891935
 20
176.824835
 30
0.0
 10
195.563295
 20
177.496190
 30
0.0
 10
196.391455
 20
177.496190
 30
0.0
  0
SPLINE
  5
1b6
100
AcDbEntity
  8
Layer_1
 62
1
100
AcDbSpline
 70
8
 71
3
 72
8
 73
4
 74
0
 40
0
 40
0
 40
0
 40
0
 40
1
 40
1
 40
1
 40
1
 10
196.391455
 20
177.496190
 30
0.0
 10
197.219615
 20
177.496190
 30
0.0
 10
197.890965
 20
176.824835
 30
0.0
 10
197.890965
 20
175.996676
 30
0.0
  0
LWPOLYLINE
  5
1b7
100
AcDbEntity
  8
Layer_1
 62
1
100
AcDbPolyline
 90
1
 70
1
 10
160.891935
 20
175.996676
 30
0.0
  0
SPLINE
  5
1b8
100
AcDbEntity
  8
Layer_1
 62
1
100
AcDbSpline
 70
8
 71
3
 72
8
 73
4
 74
0
 40
0
 40
0
 40
0
 40
0
 40
1
 40
1
 40
1
 40
1
 10
160.891935
 20
134.997646
 30
0.0
 10
160.891935
 20
134.169487
 30
0.0
 10
160.220585
 20
133.498131
 30
0.0
 10
159.392425
 20
133.498131
 30
0.0
  0
SPLINE
  5
1b9
100
AcDbEntity
  8
Layer_1
 62
1
100
AcDbSpline
 70
8
 71
3
 72
8
 73
4
 74
0
 40
0
 40
0
 40
0
 40
0
 40
1
 40
1
 40
1
 40
1
 10
159.392425
 20
133.498131
 30
0.0
 10
158.564265
 20
133.498131
 30
0.0
 10
157.892905
 20
134.169487
 30
0.0
 10
157.892905
 20
134.997646
 30
0.0
  0
SPLINE
  5
1ba
100
AcDbEntity
  8
Layer_1
 62
1
100
AcDbSpline
 70
8
 71
3
 72
8
 73
4
 74
0
 40
0
 40
0
 40
0
 40
0
 40
1
 40
1
 40
1
 40
1
 10
157.892905
 20
134.997646
 30
0.0
 10
157.892905
 20
135.825805
 30
0.0
 10
158.564265
 20
136.497161
 30
0.0
 10
159.392425
 20
136.497161
 30
0.0
  0
SPLINE
  5
1bb
100
AcDbEntity
  8
Layer_1
 62
1
100
AcDbSpline
 70
8
 71
3
 72
8
 73
4
 74
0
 40
0
 40
0
 40
0
 40
0
 40
1
 40
1
 40
1
 40
1
 10
159.392425
 20
136.497161
 30
0.0
 10
160.220585
 20
136.497161
 30
0.0
 10
160.891935
 20
135.825805
 30
0.0
 10
160.891935
 20
134.997646
 30
0.0
  0
LWPOLYLINE
  5
1bc
100
AcDbEntity
  8
Layer_1
 62
1
100
AcDbPolyline
 90
1
 70
1
 10
197.890965
 20
175.996676
 30
0.0
  0
SPLINE
  5
1bd
100
AcDbEntity
  8
Layer_1
 62
1
100
AcDbSpline
 70
8
 71
3
 72
8
 73
4
 74
0
 40
0
 40
0
 40
0
 40
0
 40
1
 40
1
 40
1
 40
1
 10
197.890965
 20
134.997646
 30
0.0
 10
197.890965
 20
134.169487
 30
0.0
 10
197.219615
 20
133.498131
 30
0.0
 10
196.391455
 20
133.498131
 30
0.0
  0
SPLINE
  5
1be
100
AcDbEntity
  8
Layer_1
 62
1
100
AcDbSpline
 70
8
 71
3
 72
8
 73
4
 74
0
 40
0
 40
0
 40
0
 40
0
 40
1
 40
1
 40
1
 40
1
 10
196.391455
 20
133.498131
 30
0.0
 10
195.563295
 20
133.498131
 30
0.0
 10
194.891935
 20
134.169487
 30
0.0
 10
194.891935
 20
134.997646
 30
0.0
  0
SPLINE
  5
1bf
100
AcDbEntity
  8
Layer_1
 62
1
100
AcDbSpline
 70
8
 71
3
 72
8
 73
4
 74
0
 40
0
 40
0
 40
0
 40
0
 40
1
 40
1
 40
1
 40
1
 10
194.891935
 20
134.997646
 30
0.0
 10
194.891935
 20
135.825805
 30
0.0
 10
195.563295
 20
136.497161
 30
0.0
 10
196.391455
 20
136.497161
 30
0.0
  0
SPLINE
  5
1c0
100
AcDbEntity
  8
Layer_1
 62
1
100
AcDbSpline
 70
8
 71
3
 72
8
 73
4
 74
0
 40
0
 40
0
 40
0
 40
0
 40
1
 40
1
 40
1
 40
1
 10
196.391455
 20
136.497161
 30
0.0
 10
197.219615
 20
136.497161
 30
0.0
 10
197.890965
 20
135.825805
 30
0.0
 10
197.890965
 20
134.997646
 30
0.0
  0
LWPOLYLINE
  5
1c1
100
AcDbEntity
  8
Layer_1
 62
1
100
AcDbPolyline
 90
1
 70
1
 10
160.891935
 20
134.997646
 30
0.0
  0
SPLINE
  5
1c2
100
AcDbEntity
  8
Layer_1
 62
1
100
AcDbSpline
 70
8
 71
3
 72
8
 73
4
 74
0
 40
0
 40
0
 40
0
 40
0
 40
1
 40
1
 40
1
 40
1
 10
160.891935
 20
93.998617
 30
0.0
 10
160.891935
 20
93.170458
 30
0.0
 10
160.220585
 20
92.499102
 30
0.0
 10
159.392425
 20
92.499102
 30
0.0
  0
SPLINE
  5
1c3
100
AcDbEntity
  8
Layer_1
 62
1
100
AcDbSpline
 70
8
 71
3
 72
8
 73
4
 74
0
 40
0
 40
0
 40
0
 40
0
 40
1
 40
1
 40
1
 40
1
 10
159.392425
 20
92.499102
 30
0.0
 10
158.564265
 20
92.499102
 30
0.0
 10
157.892905
 20
93.170458
 30
0.0
 10
157.892905
 20
93.998617
 30
0.0
  0
SPLINE
  5
1c4
100
AcDbEntity
  8
Layer_1
 62
1
100
AcDbSpline
 70
8
 71
3
 72
8
 73
4
 74
0
 40
0
 40
0
 40
0
 40
0
 40
1
 40
1
 40
1
 40
1
 10
157.892905
 20
93.998617
 30
0.0
 10
157.892905
 20
94.826776
 30
0.0
 10
158.564265
 20
95.498132
 30
0.0
 10
159.392425
 20
95.498132
 30
0.0
  0
SPLINE
  5
1c5
100
AcDbEntity
  8
Layer_1
 62
1
100
AcDbSpline
 70
8
 71
3
 72
8
 73
4
 74
0
 40
0
 40
0
 40
0
 40
0
 40
1
 40
1
 40
1
 40
1
 10
159.392425
 20
95.498132
 30
0.0
 10
160.220585
 20
95.498132
 30
0.0
 10
160.891935
 20
94.826776
 30
0.0
 10
160.891935
 20
93.998617
 30
0.0
  0
LWPOLYLINE
  5
1c6
100
AcDbEntity
  8
Layer_1
 62
1
100
AcDbPolyline
 90
1
 70
1
 10
197.890965
 20
134.997646
 30
0.0
  0
SPLINE
  5
1c7
100
AcDbEntity
  8
Layer_1
 62
1
100
AcDbSpline
 70
8
 71
3
 72
8
 73
4
 74
0
 40
0
 40
0
 40
0
 40
0
 40
1
 40
1
 40
1
 40
1
 10
197.890965
 20
93.998617
 30
0.0
 10
197.890965
 20
93.170458
 30
0.0
 10
197.219615
 20
92.499102
 30
0.0
 10
196.391455
 20
92.499102
 30
0.0
  0
SPLINE
  5
1c8
100
AcDbEntity
  8
Layer_1
 62
1
100
AcDbSpline
 70
8
 71
3
 72
8
 73
4
 74
0
 40
0
 40
0
 40
0
 40
0
 40
1
 40
1
 40
1
 40
1
 10
196.391455
 20
92.499102
 30
0.0
 10
195.563295
 20
92.499102
 30
0.0
 10
194.891935
 20
93.170458
 30
0.0
 10
194.891935
 20
93.998617
 30
0.0
  0
SPLINE
  5
1c9
100
AcDbEntity
  8
Layer_1
 62
1
100
AcDbSpline
 70
8
 71
3
 72
8
 73
4
 74
0
 40
0
 40
0
 40
0
 40
0
 40
1
 40
1
 40
1
 40
1
 10
194.891935
 20
93.998617
 30
0.0
 10
194.891935
 20
94.826776
 30
0.0
 10
195.563295
 20
95.498132
 30
0.0
 10
196.391455
 20
95.498132
 30
0.0
  0
SPLINE
  5
1ca
100
AcDbEntity
  8
Layer_1
 62
1
100
AcDbSpline
 70
8
 71
3
 72
8
 73
4
 74
0
 40
0
 40
0
 40
0
 40
0
 40
1
 40
1
 40
1
 40
1
 10
196.391455
 20
95.498132
 30
0.0
 10
197.219615
 20
95.498132
 30
0.0
 10
197.890965
 20
94.826776
 30
0.0
 10
197.890965
 20
93.998617
 30
0.0
  0
LWPOLYLINE
  5
1cb
100
AcDbEntity
  8
Layer_1
 62
1
100
AcDbPolyline
 90
1
 70
1
 10
160.891935
 20
93.998617
 30
0.0
  0
LWPOLYLINE
  5
1cc
100
AcDbEntity
  8
Layer_1
 62
1
100
AcDbPolyline
 90
1
 70
1
 10
197.890965
 20
93.998617
 30
0.0
  0
SPLINE
  5
1cd
100
AcDbEntity
  8
Layer_1
 62
1
100
AcDbSpline
 70
8
 71
3
 72
8
 73
4
 74
0
 40
0
 40
0
 40
0
 40
0
 40
1
 40
1
 40
1
 40
1
 10
196.995295
 20
179.995295
 30
0.0
 10
198.657295
 20
179.995295
 30
0.0
 10
199.995295
 20
178.657295
 30
0.0
 10
199.995295
 20
176.995295
 30
0.0
  0
LWPOLYLINE
  5
1ce
100
AcDbEntity
  8
Layer_1
 62
1
100
AcDbPolyline
 90
2
 70
0
 10
3.004701
 20
179.995295
 30
0.0
 10
196.995295
 20
179.995295
 30
0.0
  0
SPLINE
  5
1cf
100
AcDbEntity
  8
Layer_1
 62
1
100
AcDbSpline
 70
8
 71
3
 72
8
 73
4
 74
0
 40
0
 40
0
 40
0
 40
0
 40
1
 40
1
 40
1
 40
1
 10
199.995295
 20
93.004709
 30
0.0
 10
199.995295
 20
91.342709
 30
0.0
 10
198.657295
 20
90.004709
 30
0.0
 10
196.995295
 20
90.004709
 30
0.0
  0
LWPOLYLINE
  5
1d0
100
AcDbEntity
  8
Layer_1
 62
1
100
AcDbPolyline
 90
2
 70
0
 10
199.995295
 20
176.995295
 30
0.0
 10
199.995295
 20
93.004709
 30
0.0
  0
SPLINE
  5
1d1
100
AcDbEntity
  8
Layer_1
 62
1
100
AcDbSpline
 70
8
 71
3
 72
8
 73
4
 74
0
 40
0
 40
0
 40
0
 40
0
 40
1
 40
1
 40
1
 40
1
 10
3.004701
 20
90.004709
 30
0.0
 10
1.342704
 20
90.004709
 30
0.0
 10
0.004706
 20
91.342709
 30
0.0
 10
0.004706
 20
93.004709
 30
0.0
  0
LWPOLYLINE
  5
1d2
100
AcDbEntity
  8
Layer_1
 62
1
100
AcDbPolyline
 90
2
 70
0
 10
196.995295
 20
90.004709
 30
0.0
 10
3.004701
 20
90.004709
 30
0.0
  0
SPLINE
  5
1d3
100
AcDbEntity
  8
Layer_1
 62
1
100
AcDbSpline
 70
8
 71
3
 72
8
 73
4
 74
0
 40
0
 40
0
 40
0
 40
0
 40
1
 40
1
 40
1
 40
1
 10
0.004706
 20
176.995295
 30
0.0
 10
0.004706
 20
178.657295
 30
0.0
 10
1.342704
 20
179.995295
 30
0.0
 10
3.004701
 20
179.995295
 30
0.0
  0
LWPOLYLINE
  5
1d4
100
AcDbEntity
  8
Layer_1
 62
1
100
AcDbPolyline
 90
2
 70
0
 10
0.004706
 20
93.004709
 30
0.0
 10
0.004706
 20
176.995295
 30
0.0
  0
SPLINE
  5
1d5
100
AcDbEntity
  8
Layer_1
 62
1
100
AcDbSpline
 70
8
 71
3
 72
8
 73
4
 74
0
 40
0
 40
0
 40
0
 40
0
 40
1
 40
1
 40
1
 40
1
 10
179.394015
 20
63.999522
 30
0.0
 10
179.394015
 20
63.171252
 30
0.0
 10
178.722565
 20
62.499802
 30
0.0
 10
177.894295
 20
62.499802
 30
0.0
  0
SPLINE
  5
1d6
100
AcDbEntity
  8
Layer_1
 62
1
100
AcDbSpline
 70
8
 71
3
 72
8
 73
4
 74
0
 40
0
 40
0
 40
0
 40
0
 40
1
 40
1
 40
1
 40
1
 10
177.894295
 20
62.499802
 30
0.0
 10
177.066025
 20
62.499802
 30
0.0
 10
176.394575
 20
63.171252
 30
0.0
 10
176.394575
 20
63.999522
 30
0.0
  0
SPLINE
  5
1d7
100
AcDbEntity
  8
Layer_1
 62
1
100
AcDbSpline
 70
8
 71
3
 72
8
 73
4
 74
0
 40
0
 40
0
 40
0
 40
0
 40
1
 40
1
 40
1
 40
1
 10
176.394575
 20
63.999522
 30
0.0
 10
176.394575
 20
64.827792
 30
0.0
 10
177.066025
 20
65.499242
 30
0.0
 10
177.894295
 20
65.499242
 30
0.0
  0
SPLINE
  5
1d8
100
AcDbEntity
  8
Layer_1
 62
1
100
AcDbSpline
 70
8
 71
3
 72
8
 73
4
 74
0
 40
0
 40
0
 40
0
 40
0
 40
1
 40
1
 40
1
 40
1
 10
177.894295
 20
65.499242
 30
0.0
 10
178.722565
 20
65.499242
 30
0.0
 10
179.394015
 20
64.827792
 30
0.0
 10
179.394015
 20
63.999522
 30
0.0
  0
LWPOLYLINE
  5
1d9
100
AcDbEntity
  8
Layer_1
 62
1
100
AcDbPolyline
 90
1
 70
1
 10
3.004701
 20
179.995295
 30
0.0
  0
SPLINE
  5
1da
100
AcDbEntity
  8
Layer_1
 62
1
100
AcDbSpline
 70
8
 71
3
 72
8
 73
4
 74
0
 40
0
 40
0
 40
0
 40
0
 40
1
 40
1
 40
1
 40
1
 10
179.394015
 20
26.000082
 30
0.0
 10
179.394015
 20
25.171812
 30
0.0
 10
178.722565
 20
24.500372
 30
0.0
 10
177.894295
 20
24.500372
 30
0.0
  0
SPLINE
  5
1db
100
AcDbEntity
  8
Layer_1
 62
1
100
AcDbSpline
 70
8
 71
3
 72
8
 73
4
 74
0
 40
0
 40
0
 40
0
 40
0
 40
1
 40
1
 40
1
 40
1
 10
177.894295
 20
24.500372
 30
0.0
 10
177.066025
 20
24.500372
 30
0.0
 10
176.394575
 20
25.171812
 30
0.0
 10
176.394575
 20
26.000082
 30
0.0
  0
SPLINE
  5
1dc
100
AcDbEntity
  8
Layer_1
 62
1
100
AcDbSpline
 70
8
 71
3
 72
8
 73
4
 74
0
 40
0
 40
0
 40
0
 40
0
 40
1
 40
1
 40
1
 40
1
 10
176.394575
 20
26.000082
 30
0.0
 10
176.394575
 20
26.828362
 30
0.0
 10
177.066025
 20
27.499802
 30
0.0
 10
177.894295
 20
27.499802
 30
0.0
  0
SPLINE
  5
1dd
100
AcDbEntity
  8
Layer_1
 62
1
100
AcDbSpline
 70
8
 71
3
 72
8
 73
4
 74
0
 40
0
 40
0
 40
0
 40
0
 40
1
 40
1
 40
1
 40
1
 10
177.894295
 20
27.499802
 30
0.0
 10
178.722565
 20
27.499802
 30
0.0
 10
179.394015
 20
26.828362
 30
0.0
 10
179.394015
 20
26.000082
 30
0.0
  0
LWPOLYLINE
  5
1de
100
AcDbEntity
  8
Layer_1
 62
1
100
AcDbPolyline
 90
1
 70
1
 10
179.394015
 20
63.999522
 30
0.0
  0
LWPOLYLINE
  5
1df
100
AcDbEntity
  8
Layer_1
 62
1
100
AcDbPolyline
 90
1
 70
1
 10
179.394015
 20
26.000082
 30
0.0
  0
SPLINE
  5
1e0
100
AcDbEntity
  8
Layer_1
 62
1
100
AcDbSpline
 70
8
 71
3
 72
8
 73
4
 74
0
 40
0
 40
0
 40
0
 40
0
 40
1
 40
1
 40
1
 40
1
 10
188.273745
 20
132.845065
 30
0.0
 10
189.999655
 20
132.845065
 30
0.0
 10
191.389115
 20
131.455610
 30
0.0
 10
191.389115
 20
129.729695
 30
0.0
  0
LWPOLYLINE
  5
1e1
100
AcDbEntity
  8
Layer_1
 62
1
100
AcDbPolyline
 90
2
 70
0
 10
167.514865
 20
132.845065
 30
0.0
 10
188.273745
 20
132.845065
 30
0.0
  0
SPLINE
  5
1e2
100
AcDbEntity
  8
Layer_1
 62
1
100
AcDbSpline
 70
8
 71
3
 72
8
 73
4
 74
0
 40
0
 40
0
 40
0
 40
0
 40
1
 40
1
 40
1
 40
1
 10
191.389115
 20
108.970819
 30
0.0
 10
191.389115
 20
107.244905
 30
0.0
 10
189.999655
 20
105.855450
 30
0.0
 10
188.273745
 20
105.855450
 30
0.0
  0
LWPOLYLINE
  5
1e3
100
AcDbEntity
  8
Layer_1
 62
1
100
AcDbPolyline
 90
2
 70
0
 10
191.389115
 20
129.729695
 30
0.0
 10
191.389115
 20
108.970819
 30
0.0
  0
SPLINE
  5
1e4
100
AcDbEntity
  8
Layer_1
 62
1
100
AcDbSpline
 70
8
 71
3
 72
8
 73
4
 74
0
 40
0
 40
0
 40
0
 40
0
 40
1
 40
1
 40
1
 40
1
 10
167.514865
 20
105.855450
 30
0.0
 10
165.788955
 20
105.855450
 30
0.0
 10
164.399495
 20
107.244905
 30
0.0
 10
164.399495
 20
108.970819
 30
0.0
  0
LWPOLYLINE
  5
1e5
100
AcDbEntity
  8
Layer_1
 62
1
100
AcDbPolyline
 90
2
 70
0
 10
188.273745
 20
105.855450
 30
0.0
 10
167.514865
 20
105.855450
 30
0.0
  0
SPLINE
  5
1e6
100
AcDbEntity
  8
Layer_1
 62
1
100
AcDbSpline
 70
8
 71
3
 72
8
 73
4
 74
0
 40
0
 40
0
 40
0
 40
0
 40
1
 40
1
 40
1
 40
1
 10
164.399495
 20
129.729695
 30
0.0
 10
164.399495
 20
131.455610
 30
0.0
 10
165.788955
 20
132.845065
 30
0.0
 10
167.514865
 20
132.845065
 30
0.0
  0
LWPOLYLINE
  5
1e7
100
AcDbEntity
  8
Layer_1
 62
1
100
AcDbPolyline
 90
2
 70
0
 10
164.399495
 20
108.970819
 30
0.0
 10
164.399495
 20
129.729695
 30
0.0
  0
SPLINE
  5
1e8
100
AcDbEntity
  8
Layer_1
 62
1
100
AcDbSpline
 70
8
 71
3
 72
8
 73
4
 74
0
 40
0
 40
0
 40
0
 40
0
 40
1
 40
1
 40
1
 40
1
 10
19.665845
 20
162.989611
 30
0.0
 10
19.665845
 20
161.113991
 30
0.0
 10
18.145358
 20
159.593501
 30
0.0
 10
16.269741
 20
159.593501
 30
0.0
  0
SPLINE
  5
1e9
100
AcDbEntity
  8
Layer_1
 62
1
100
AcDbSpline
 70
8
 71
3
 72
8
 73
4
 74
0
 40
0
 40
0
 40
0
 40
0
 40
1
 40
1
 40
1
 40
1
 10
16.269741
 20
159.593501
 30
0.0
 10
14.394125
 20
159.593501
 30
0.0
 10
12.873637
 20
161.113991
 30
0.0
 10
12.873637
 20
162.989611
 30
0.0
  0
SPLINE
  5
1ea
100
AcDbEntity
  8
Layer_1
 62
1
100
AcDbSpline
 70
8
 71
3
 72
8
 73
4
 74
0
 40
0
 40
0
 40
0
 40
0
 40
1
 40
1
 40
1
 40
1
 10
12.873637
 20
162.989611
 30
0.0
 10
12.873637
 20
164.865231
 30
0.0
 10
14.394125
 20
166.385711
 30
0.0
 10
16.269741
 20
166.385711
 30
0.0
  0
SPLINE
  5
1eb
100
AcDbEntity
  8
Layer_1
 62
1
100
AcDbSpline
 70
8
 71
3
 72
8
 73
4
 74
0
 40
0
 40
0
 40
0
 40
0
 40
1
 40
1
 40
1
 40
1
 10
16.269741
 20
166.385711
 30
0.0
 10
18.145358
 20
166.385711
 30
0.0
 10
19.665845
 20
164.865231
 30
0.0
 10
19.665845
 20
162.989611
 30
0.0
  0
LWPOLYLINE
  5
1ec
100
AcDbEntity
  8
Layer_1
 62
1
100
AcDbPolyline
 90
1
 70
1
 10
167.514865
 20
132.845065
 30
0.0
  0
SPLINE
  5
1ed
100
AcDbEntity
  8
Layer_1
 62
1
100
AcDbSpline
 70
8
 71
3
 72
8
 73
4
 74
0
 40
0
 40
0
 40
0
 40
0
 40
1
 40
1
 40
1
 40
1
 10
47.655456
 20
162.989611
 30
0.0
 10
47.655456
 20
161.113991
 30
0.0
 10
46.134968
 20
159.593501
 30
0.0
 10
44.259352
 20
159.593501
 30
0.0
  0
SPLINE
  5
1ee
100
AcDbEntity
  8
Layer_1
 62
1
100
AcDbSpline
 70
8
 71
3
 72
8
 73
4
 74
0
 40
0
 40
0
 40
0
 40
0
 40
1
 40
1
 40
1
 40
1
 10
44.259352
 20
159.593501
 30
0.0
 10
42.383735
 20
159.593501
 30
0.0
 10
40.863248
 20
161.113991
 30
0.0
 10
40.863248
 20
162.989611
 30
0.0
  0
SPLINE
  5
1ef
100
AcDbEntity
  8
Layer_1
 62
1
100
AcDbSpline
 70
8
 71
3
 72
8
 73
4
 74
0
 40
0
 40
0
 40
0
 40
0
 40
1
 40
1
 40
1
 40
1
 10
40.863248
 20
162.989611
 30
0.0
 10
40.863248
 20
164.865231
 30
0.0
 10
42.383735
 20
166.385711
 30
0.0
 10
44.259352
 20
166.385711
 30
0.0
  0
SPLINE
  5
1f0
100
AcDbEntity
  8
Layer_1
 62
1
100
AcDbSpline
 70
8
 71
3
 72
8
 73
4
 74
0
 40
0
 40
0
 40
0
 40
0
 40
1
 40
1
 40
1
 40
1
 10
44.259352
 20
166.385711
 30
0.0
 10
46.134968
 20
166.385711
 30
0.0
 10
47.655456
 20
164.865231
 30
0.0
 10
47.655456
 20
162.989611
 30
0.0
  0
LWPOLYLINE
  5
1f1
100
AcDbEntity
  8
Layer_1
 62
1
100
AcDbPolyline
 90
1
 70
1
 10
19.665845
 20
162.989611
 30
0.0
  0
SPLINE
  5
1f2
100
AcDbEntity
  8
Layer_1
 62
1
100
AcDbSpline
 70
8
 71
3
 72
8
 73
4
 74
0
 40
0
 40
0
 40
0
 40
0
 40
1
 40
1
 40
1
 40
1
 10
19.665845
 20
135.000001
 30
0.0
 10
19.665845
 20
133.124381
 30
0.0
 10
18.145358
 20
131.603901
 30
0.0
 10
16.269741
 20
131.603901
 30
0.0
  0
SPLINE
  5
1f3
100
AcDbEntity
  8
Layer_1
 62
1
100
AcDbSpline
 70
8
 71
3
 72
8
 73
4
 74
0
 40
0
 40
0
 40
0
 40
0
 40
1
 40
1
 40
1
 40
1
 10
16.269741
 20
131.603901
 30
0.0
 10
14.394125
 20
131.603901
 30
0.0
 10
12.873637
 20
133.124381
 30
0.0
 10
12.873637
 20
135.000001
 30
0.0
  0
SPLINE
  5
1f4
100
AcDbEntity
  8
Layer_1
 62
1
100
AcDbSpline
 70
8
 71
3
 72
8
 73
4
 74
0
 40
0
 40
0
 40
0
 40
0
 40
1
 40
1
 40
1
 40
1
 10
12.873637
 20
135.000001
 30
0.0
 10
12.873637
 20
136.875621
 30
0.0
 10
14.394125
 20
138.396101
 30
0.0
 10
16.269741
 20
138.396101
 30
0.0
  0
SPLINE
  5
1f5
100
AcDbEntity
  8
Layer_1
 62
1
100
AcDbSpline
 70
8
 71
3
 72
8
 73
4
 74
0
 40
0
 40
0
 40
0
 40
0
 40
1
 40
1
 40
1
 40
1
 10
16.269741
 20
138.396101
 30
0.0
 10
18.145358
 20
138.396101
 30
0.0
 10
19.665845
 20
136.875621
 30
0.0
 10
19.665845
 20
135.000001
 30
0.0
  0
LWPOLYLINE
  5
1f6
100
AcDbEntity
  8
Layer_1
 62
1
100
AcDbPolyline
 90
1
 70
1
 10
47.655456
 20
162.989611
 30
0.0
  0
SPLINE
  5
1f7
100
AcDbEntity
  8
Layer_1
 62
1
100
AcDbSpline
 70
8
 71
3
 72
8
 73
4
 74
0
 40
0
 40
0
 40
0
 40
0
 40
1
 40
1
 40
1
 40
1
 10
47.655456
 20
135.000001
 30
0.0
 10
47.655456
 20
133.124381
 30
0.0
 10
46.134968
 20
131.603901
 30
0.0
 10
44.259352
 20
131.603901
 30
0.0
  0
SPLINE
  5
1f8
100
AcDbEntity
  8
Layer_1
 62
1
100
AcDbSpline
 70
8
 71
3
 72
8
 73
4
 74
0
 40
0
 40
0
 40
0
 40
0
 40
1
 40
1
 40
1
 40
1
 10
44.259352
 20
131.603901
 30
0.0
 10
42.383735
 20
131.603901
 30
0.0
 10
40.863248
 20
133.124381
 30
0.0
 10
40.863248
 20
135.000001
 30
0.0
  0
SPLINE
  5
1f9
100
AcDbEntity
  8
Layer_1
 62
1
100
AcDbSpline
 70
8
 71
3
 72
8
 73
4
 74
0
 40
0
 40
0
 40
0
 40
0
 40
1
 40
1
 40
1
 40
1
 10
40.863248
 20
135.000001
 30
0.0
 10
40.863248
 20
136.875621
 30
0.0
 10
42.383735
 20
138.396101
 30
0.0
 10
44.259352
 20
138.396101
 30
0.0
  0
SPLINE
  5
1fa
100
AcDbEntity
  8
Layer_1
 62
1
100
AcDbSpline
 70
8
 71
3
 72
8
 73
4
 74
0
 40
0
 40
0
 40
0
 40
0
 40
1
 40
1
 40
1
 40
1
 10
44.259352
 20
138.396101
 30
0.0
 10
46.134968
 20
138.396101
 30
0.0
 10
47.655456
 20
136.875621
 30
0.0
 10
47.655456
 20
135.000001
 30
0.0
  0
LWPOLYLINE
  5
1fb
100
AcDbEntity
  8
Layer_1
 62
1
100
AcDbPolyline
 90
1
 70
1
 10
19.665845
 20
135.000001
 30
0.0
  0
SPLINE
  5
1fc
100
AcDbEntity
  8
Layer_1
 62
1
100
AcDbSpline
 70
8
 71
3
 72
8
 73
4
 74
0
 40
0
 40
0
 40
0
 40
0
 40
1
 40
1
 40
1
 40
1
 10
19.665845
 20
107.010391
 30
0.0
 10
19.665845
 20
105.134781
 30
0.0
 10
18.145358
 20
103.614291
 30
0.0
 10
16.269741
 20
103.614291
 30
0.0
  0
SPLINE
  5
1fd
100
AcDbEntity
  8
Layer_1
 62
1
100
AcDbSpline
 70
8
 71
3
 72
8
 73
4
 74
0
 40
0
 40
0
 40
0
 40
0
 40
1
 40
1
 40
1
 40
1
 10
16.269741
 20
103.614291
 30
0.0
 10
14.394125
 20
103.614291
 30
0.0
 10
12.873637
 20
105.134781
 30
0.0
 10
12.873637
 20
107.010391
 30
0.0
  0
SPLINE
  5
1fe
100
AcDbEntity
  8
Layer_1
 62
1
100
AcDbSpline
 70
8
 71
3
 72
8
 73
4
 74
0
 40
0
 40
0
 40
0
 40
0
 40
1
 40
1
 40
1
 40
1
 10
12.873637
 20
107.010391
 30
0.0
 10
12.873637
 20
108.886011
 30
0.0
 10
14.394125
 20
110.406501
 30
0.0
 10
16.269741
 20
110.406501
 30
0.0
  0
SPLINE
  5
1ff
100
AcDbEntity
  8
Layer_1
 62
1
100
AcDbSpline
 70
8
 71
3
 72
8
 73
4
 74
0
 40
0
 40
0
 40
0
 40
0
 40
1
 40
1
 40
1
 40
1
 10
16.269741
 20
110.406501
 30
0.0
 10
18.145358
 20
110.406501
 30
0.0
 10
19.665845
 20
108.886011
 30
0.0
 10
19.665845
 20
107.010391
 30
0.0
  0
LWPOLYLINE
  5
200
100
AcDbEntity
  8
Layer_1
 62
1
100
AcDbPolyline
 90
1
 70
1
 10
47.655456
 20
135.000001
 30
0.0
  0
SPLINE
  5
201
100
AcDbEntity
  8
Layer_1
 62
1
100
AcDbSpline
 70
8
 71
3
 72
8
 73
4
 74
0
 40
0
 40
0
 40
0
 40
0
 40
1
 40
1
 40
1
 40
1
 10
47.655456
 20
107.010391
 30
0.0
 10
47.655456
 20
105.134781
 30
0.0
 10
46.134968
 20
103.614291
 30
0.0
 10
44.259352
 20
103.614291
 30
0.0
  0
SPLINE
  5
202
100
AcDbEntity
  8
Layer_1
 62
1
100
AcDbSpline
 70
8
 71
3
 72
8
 73
4
 74
0
 40
0
 40
0
 40
0
 40
0
 40
1
 40
1
 40
1
 40
1
 10
44.259352
 20
103.614291
 30
0.0
 10
42.383735
 20
103.614291
 30
0.0
 10
40.863248
 20
105.134781
 30
0.0
 10
40.863248
 20
107.010391
 30
0.0
  0
SPLINE
  5
203
100
AcDbEntity
  8
Layer_1
 62
1
100
AcDbSpline
 70
8
 71
3
 72
8
 73
4
 74
0
 40
0
 40
0
 40
0
 40
0
 40
1
 40
1
 40
1
 40
1
 10
40.863248
 20
107.010391
 30
0.0
 10
40.863248
 20
108.886011
 30
0.0
 10
42.383735
 20
110.406501
 30
0.0
 10
44.259352
 20
110.406501
 30
0.0
  0
SPLINE
  5
204
100
AcDbEntity
  8
Layer_1
 62
1
100
AcDbSpline
 70
8
 71
3
 72
8
 73
4
 74
0
 40
0
 40
0
 40
0
 40
0
 40
1
 40
1
 40
1
 40
1
 10
44.259352
 20
110.406501
 30
0.0
 10
46.134968
 20
110.406501
 30
0.0
 10
47.655456
 20
108.886011
 30
0.0
 10
47.655456
 20
107.010391
 30
0.0
  0
LWPOLYLINE
  5
205
100
AcDbEntity
  8
Layer_1
 62
1
100
AcDbPolyline
 90
1
 70
1
 10
19.665845
 20
107.010391
 30
0.0
  0
LWPOLYLINE
  5
206
100
AcDbEntity
  8
Layer_1
 62
1
100
AcDbPolyline
 90
1
 70
1
 10
47.655456
 20
107.010391
 30
0.0
  0
LWPOLYLINE
  5
207
100
AcDbEntity
  8
Layer_1
 62
1
100
AcDbPolyline
 90
4
 70
1
 10
139.258595
 20
170.575501
 30
0.0
 10
139.258595
 20
156.575501
 30
0.0
 10
153.258595
 20
156.575501
 30
0.0
 10
153.258595
 20
170.575501
 30
0.0
  0
LWPOLYLINE
  5
208
100
AcDbEntity
  8
Layer_1
 62
1
100
AcDbPolyline
 90
4
 70
1
 10
120.208595
 20
170.575501
 30
0.0
 10
120.208595
 20
156.575501
 30
0.0
 10
134.208595
 20
156.575501
 30
0.0
 10
134.208595
 20
170.575501
 30
0.0
  0
LWPOLYLINE
  5
209
100
AcDbEntity
  8
Layer_1
 62
1
100
AcDbPolyline
 90
4
 70
1
 10
101.158593
 20
170.575501
 30
0.0
 10
101.158593
 20
156.575501
 30
0.0
 10
115.158595
 20
156.575501
 30
0.0
 10
115.158595
 20
170.575501
 30
0.0
  0
LWPOLYLINE
  5
20a
100
AcDbEntity
  8
Layer_1
 62
1
100
AcDbPolyline
 90
4
 70
1
 10
82.108594
 20
170.575501
 30
0.0
 10
82.108594
 20
156.575501
 30
0.0
 10
96.108594
 20
156.575501
 30
0.0
 10
96.108594
 20
170.575501
 30
0.0
  0
LWPOLYLINE
  5
20b
100
AcDbEntity
  8
Layer_1
 62
1
100
AcDbPolyline
 90
4
 70
1
 10
63.058594
 20
170.575501
 30
0.0
 10
63.058594
 20
156.575501
 30
0.0
 10
77.058594
 20
156.575501
 30
0.0
 10
77.058594
 20
170.575501
 30
0.0
  0
LWPOLYLINE
  5
20c
100
AcDbEntity
  8
Layer_1
 62
1
100
AcDbPolyline
 90
4
 70
1
 10
139.258595
 20
151.525501
 30
0.0
 10
139.258595
 20
137.525501
 30
0.0
 10
153.258595
 20
137.525501
 30
0.0
 10
153.258595
 20
151.525501
 30
0.0
  0
LWPOLYLINE
  5
20d
100
AcDbEntity
  8
Layer_1
 62
1
100
AcDbPolyline
 90
4
 70
1
 10
120.208595
 20
151.525501
 30
0.0
 10
120.208595
 20
137.525501
 30
0.0
 10
134.208595
 20
137.525501
 30
0.0
 10
134.208595
 20
151.525501
 30
0.0
  0
LWPOLYLINE
  5
20e
100
AcDbEntity
  8
Layer_1
 62
1
100
AcDbPolyline
 90
4
 70
1
 10
101.158593
 20
151.525501
 30
0.0
 10
101.158593
 20
137.525501
 30
0.0
 10
115.158595
 20
137.525501
 30
0.0
 10
115.158595
 20
151.525501
 30
0.0
  0
LWPOLYLINE
  5
20f
100
AcDbEntity
  8
Layer_1
 62
1
100
AcDbPolyline
 90
4
 70
1
 10
82.108594
 20
151.525501
 30
0.0
 10
82.108594
 20
137.525501
 30
0.0
 10
96.108594
 20
137.525501
 30
0.0
 10
96.108594
 20
151.525501
 30
0.0
  0
LWPOLYLINE
  5
210
100
AcDbEntity
  8
Layer_1
 62
1
100
AcDbPolyline
 90
4
 70
1
 10
63.058594
 20
151.525501
 30
0.0
 10
63.058594
 20
137.525501
 30
0.0
 10
77.058594
 20
137.525501
 30
0.0
 10
77.058594
 20
151.525501
 30
0.0
  0
LWPOLYLINE
  5
211
100
AcDbEntity
  8
Layer_1
 62
1
100
AcDbPolyline
 90
4
 70
1
 10
139.258595
 20
132.475501
 30
0.0
 10
139.258595
 20
118.475501
 30
0.0
 10
153.258595
 20
118.475501
 30
0.0
 10
153.258595
 20
132.475501
 30
0.0
  0
LWPOLYLINE
  5
212
100
AcDbEntity
  8
Layer_1
 62
1
100
AcDbPolyline
 90
4
 70
1
 10
120.208595
 20
132.475501
 30
0.0
 10
120.208595
 20
118.475501
 30
0.0
 10
134.208595
 20
118.475501
 30
0.0
 10
134.208595
 20
132.475501
 30
0.0
  0
LWPOLYLINE
  5
213
100
AcDbEntity
  8
Layer_1
 62
1
100
AcDbPolyline
 90
4
 70
1
 10
101.158593
 20
132.475501
 30
0.0
 10
101.158593
 20
118.475501
 30
0.0
 10
115.158595
 20
118.475501
 30
0.0
 10
115.158595
 20
132.475501
 30
0.0
  0
LWPOLYLINE
  5
214
100
AcDbEntity
  8
Layer_1
 62
1
100
AcDbPolyline
 90
4
 70
1
 10
82.108594
 20
132.475501
 30
0.0
 10
82.108594
 20
118.475501
 30
0.0
 10
96.108594
 20
118.475501
 30
0.0
 10
96.108594
 20
132.475501
 30
0.0
  0
LWPOLYLINE
  5
215
100
AcDbEntity
  8
Layer_1
 62
1
100
AcDbPolyline
 90
4
 70
1
 10
63.058594
 20
132.475501
 30
0.0
 10
63.058594
 20
118.475501
 30
0.0
 10
77.058594
 20
118.475501
 30
0.0
 10
77.058594
 20
132.475501
 30
0.0
  0
LWPOLYLINE
  5
216
100
AcDbEntity
  8
Layer_1
 62
1
100
AcDbPolyline
 90
4
 70
1
 10
139.258595
 20
113.425501
 30
0.0
 10
139.258595
 20
99.425501
 30
0.0
 10
153.258595
 20
99.425501
 30
0.0
 10
153.258595
 20
113.425501
 30
0.0
  0
LWPOLYLINE
  5
217
100
AcDbEntity
  8
Layer_1
 62
1
100
AcDbPolyline
 90
4
 70
1
 10
120.208595
 20
113.425501
 30
0.0
 10
120.208595
 20
99.425501
 30
0.0
 10
134.208595
 20
99.425501
 30
0.0
 10
134.208595
 20
113.425501
 30
0.0
  0
LWPOLYLINE
  5
218
100
AcDbEntity
  8
Layer_1
 62
1
100
AcDbPolyline
 90
4
 70
1
 10
101.158593
 20
113.425501
 30
0.0
 10
101.158593
 20
99.425501
 30
0.0
 10
115.158595
 20
99.425501
 30
0.0
 10
115.158595
 20
113.425501
 30
0.0
  0
LWPOLYLINE
  5
219
100
AcDbEntity
  8
Layer_1
 62
1
100
AcDbPolyline
 90
4
 70
1
 10
82.108594
 20
113.425501
 30
0.0
 10
82.108594
 20
99.425501
 30
0.0
 10
96.108594
 20
99.425501
 30
0.0
 10
96.108594
 20
113.425501
 30
0.0
  0
LWPOLYLINE
  5
21a
100
AcDbEntity
  8
Layer_1
 62
1
100
AcDbPolyline
 90
4
 70
1
 10
63.058594
 20
113.425501
 30
0.0
 10
63.058594
 20
99.425501
 30
0.0
 10
77.058594
 20
99.425501
 30
0.0
 10
77.058594
 20
113.425501
 30
0.0
  0
LWPOLYLINE
  5
21b
100
AcDbEntity
  8
Layer_1
 62
1
100
AcDbPolyline
 90
4
 70
1
 10
155.783595
 20
96.899501
 30
0.0
 10
60.533594
 20
96.899501
 30
0.0
 10
60.533594
 20
173.100501
 30
0.0
 10
155.783595
 20
173.100501
 30
0.0
  0
ENDSEC
  0
SECTION
  2
OBJECTS
  0
DICTIONARY
  5
C
330
0
100
AcDbDictionary
  3
ACAD_GROUP
350
D
  3
ACAD_MLINESTYLE
350
17
  0
DICTIONARY
  5
D
330
C
100
AcDbDictionary
  0
DICTIONARY
  5
1A
330
C
100
AcDbDictionary
  0
DICTIONARY
  5
17
330
C
100
AcDbDictionary
  3
STANDARD
350
18
  0
DICTIONARY
  5
19
330
C
100
AcDbDictionary
  0
ENDSEC
  0
EOF
